<?xml version="1.0" standalone="no"?>
<!DOCTYPE svg PUBLIC "-//W3C//DTD SVG 20010904//EN"
 "http://www.w3.org/TR/2001/REC-SVG-20010904/DTD/svg10.dtd">
<svg version="1.0" xmlns="http://www.w3.org/2000/svg"
 width="900.000000pt" height="1058.000000pt" viewBox="0 0 900.000000 1058.000000"
 preserveAspectRatio="xMidYMid meet">
<metadata>
Created by potrace 1.14, written by Peter Selinger 2001-2017
</metadata>
<g transform="translate(0.000000,1058.000000) scale(0.100000,-0.100000)"
fill="#000000" stroke="none">
<path d="M4451 10134 c-18 -19 -34 -48 -37 -63 -6 -27 -8 -28 -49 -23 -36 4
-45 1 -54 -17 -7 -12 -10 -33 -9 -48 2 -21 -2 -28 -21 -33 -32 -7 -60 -47 -63
-88 -3 -40 -14 -50 -23 -22 -15 48 -121 65 -165 25 -17 -15 -19 -15 -25 4 -8
26 -52 58 -91 66 l-29 7 31 -20 c39 -25 80 -78 89 -114 8 -33 19 -35 37 -10
39 55 94 48 152 -20 l34 -39 21 56 c12 31 21 60 21 65 0 19 40 50 63 50 20 0
23 5 24 35 1 50 19 67 66 63 28 -2 41 2 48 15 13 22 24 22 47 -3 11 -12 26
-18 35 -14 8 3 25 0 37 -6 17 -9 21 -19 18 -44 -3 -31 -1 -34 40 -45 39 -10
45 -16 69 -69 14 -31 28 -59 30 -62 3 -3 14 8 25 23 21 29 67 57 94 57 9 0 32
-16 51 -35 20 -20 36 -34 37 -33 1 2 11 24 23 49 13 28 41 62 70 85 72 57 73
58 8 26 -33 -16 -68 -39 -78 -50 -18 -19 -18 -19 -55 0 -47 24 -86 17 -128
-23 l-32 -31 -7 31 c-7 33 -47 71 -74 71 -13 0 -16 8 -13 38 5 55 -16 77 -71
74 -44 -1 -46 0 -67 42 -33 69 -42 72 -79 30z"/>
<path d="M3770 9989 c0 -3 29 -67 65 -142 72 -150 101 -224 150 -372 l34 -100
163 -7 c90 -3 246 -16 347 -27 234 -27 371 -28 399 -3 13 10 32 57 52 124 51
181 99 309 156 417 30 57 53 106 51 107 -6 6 -115 -151 -154 -223 -44 -81
-107 -257 -119 -333 -4 -25 -12 -48 -18 -52 -19 -13 -145 -9 -181 6 -19 8 -35
22 -35 30 0 21 -38 21 -61 0 -38 -34 -211 -26 -226 12 -7 19 -32 18 -56 -3
-28 -26 -162 -31 -206 -9 -17 9 -31 21 -31 26 0 26 -135 280 -203 381 -73 109
-127 181 -127 168z"/>
<path d="M4447 9953 c-27 -31 -39 -98 -26 -145 14 -55 35 -78 71 -78 62 0 93
134 48 208 -23 37 -66 44 -93 15z"/>
<path d="M4320 9852 c-15 -16 -35 -52 -44 -81 l-16 -53 30 -44 c17 -23 34 -52
38 -64 l8 -21 26 21 c40 31 52 77 33 129 -8 24 -15 65 -15 92 0 59 -16 64 -60
21z"/>
<path d="M4600 9820 c0 -28 -7 -64 -15 -80 -12 -22 -13 -39 -6 -70 13 -57 61
-108 61 -65 0 9 16 39 35 68 19 29 35 64 35 80 0 55 -49 117 -92 117 -15 0
-18 -9 -18 -50z"/>
<path d="M4834 9809 c-12 -4 -31 -21 -42 -37 l-21 -29 26 -79 c15 -43 28 -85
29 -91 5 -21 43 -15 69 11 13 13 35 47 50 75 l26 52 -41 47 c-47 53 -66 63
-96 51z"/>
<path d="M4051 9755 c-17 -20 -31 -39 -31 -43 0 -4 13 -32 28 -62 25 -51 30
-55 65 -58 29 -3 37 0 37 13 0 9 9 33 20 55 27 53 25 84 -6 109 -40 32 -77 27
-113 -14z"/>
<path d="M4445 9664 c-8 -44 -67 -101 -114 -111 -45 -9 -131 -8 -193 2 l-48 8
14 -39 c10 -28 19 -38 32 -37 54 7 165 3 183 -6 26 -14 74 -14 88 0 16 16 129
13 183 -4 30 -9 85 -13 164 -12 l118 1 14 32 13 32 -47 2 c-26 1 -63 1 -82 0
-58 -4 -160 19 -187 42 -15 13 -30 42 -38 71 -12 49 -13 50 -53 52 -38 1 -40
0 -47 -33z"/>
<path d="M5015 9316 c-83 -86 -215 -96 -574 -46 -292 41 -417 39 -480 -8 -36
-27 -72 -82 -69 -107 3 -17 13 -21 65 -26 38 -4 82 -16 113 -32 l50 -26 0 30
c0 66 64 60 366 -35 77 -24 166 -49 199 -57 84 -18 222 -17 265 2 35 16 34 16
-75 21 -87 4 -130 12 -205 37 -52 18 -106 40 -119 50 -22 17 -21 17 55 4 96
-17 230 -12 299 13 92 33 166 129 153 201 -3 18 -8 15 -43 -21z"/>
<path d="M7605 9220 c-48 -37 -55 -47 -55 -83 0 -45 -38 -144 -82 -215 -93
-148 -252 -316 -425 -447 -78 -59 -93 -74 -93 -98 l0 -28 78 52 c314 212 526
463 590 699 20 76 35 150 30 150 -2 0 -21 -14 -43 -30z"/>
<path d="M1406 9208 c49 -286 242 -545 585 -785 117 -82 109 -78 109 -46 0 24
-13 38 -87 93 -115 85 -287 252 -362 352 -71 92 -139 225 -147 283 -10 75 -14
82 -54 109 -22 14 -42 26 -45 26 -2 0 -2 -15 1 -32z"/>
<path d="M1815 9183 c503 -145 861 -356 1159 -682 132 -144 223 -276 310 -449
159 -317 184 -645 60 -790 -55 -65 -104 -86 -199 -87 -44 0 -93 3 -110 7 -30
7 -30 7 3 -8 61 -27 174 -46 236 -39 389 42 323 655 -132 1225 -212 265 -482
480 -807 641 -156 77 -413 171 -500 183 -22 3 -31 3 -20 -1z"/>
<path d="M7195 9183 c-11 -3 -83 -25 -160 -50 -365 -119 -681 -312 -955 -583
-562 -556 -746 -1322 -337 -1410 56 -12 188 1 241 25 29 12 25 13 -40 8 -151
-12 -255 60 -298 207 -21 70 -21 237 0 337 20 99 70 236 127 350 260 517 774
920 1402 1099 68 19 83 32 20 17z"/>
<path d="M1781 9101 c387 -137 655 -325 830 -583 41 -59 129 -235 129 -256 0
-6 14 -21 31 -33 36 -25 83 -95 100 -148 6 -20 26 -52 44 -71 57 -61 69 -95
69 -192 -1 -49 3 -88 8 -88 18 0 110 -96 131 -135 12 -25 22 -66 24 -110 7
-100 -20 -147 -108 -193 -83 -43 -92 -53 -43 -46 137 20 212 66 259 159 27 54
30 69 30 155 -1 113 -19 188 -78 320 -238 531 -810 1031 -1404 1226 -178 59
-192 55 -22 -5z"/>
<path d="M7270 9116 c-575 -179 -1163 -679 -1410 -1198 -123 -258 -128 -488
-12 -589 45 -40 111 -68 183 -78 69 -9 68 2 -5 34 -97 43 -134 110 -123 220 7
72 36 123 104 185 l58 53 1 81 c1 91 20 140 73 190 16 16 33 43 37 60 9 43 61
122 100 152 18 14 38 42 45 62 6 20 29 71 49 112 156 309 462 548 898 701 157
55 158 64 2 15z"/>
<path d="M5210 9105 c-6 -8 -22 -17 -33 -21 -12 -3 -35 -12 -52 -19 -16 -7
-42 -17 -57 -23 -16 -7 -28 -15 -28 -20 0 -5 21 -18 48 -30 61 -29 74 -39 106
-86 l26 -39 0 31 c0 21 10 40 30 60 35 35 37 61 10 120 -20 45 -30 51 -50 27z"/>
<path d="M2011 9066 c519 -211 976 -624 1197 -1079 86 -177 123 -313 123 -452
0 -103 -22 -175 -68 -226 -42 -46 -71 -63 -145 -84 l-53 -15 72 4 c188 12 273
149 243 388 -39 313 -280 729 -592 1023 -233 220 -523 392 -781 464 -113 32
-112 25 4 -23z"/>
<path d="M4168 9104 c-5 -4 -8 -17 -8 -30 0 -16 9 -25 30 -33 17 -5 61 -30 98
-55 80 -54 150 -73 211 -56 35 9 71 40 71 61 0 4 -37 20 -82 35 -46 15 -89 29
-97 32 -11 4 -13 -4 -9 -41 4 -35 2 -47 -8 -47 -20 0 -54 50 -54 81 0 22 -6
29 -32 38 -49 16 -112 24 -120 15z"/>
<path d="M7025 9086 c-399 -130 -747 -386 -1021 -752 -302 -403 -421 -844
-278 -1031 41 -54 102 -83 186 -89 l73 -4 -62 18 c-73 22 -124 59 -158 112
-37 59 -48 118 -43 238 4 89 11 125 42 217 188 559 733 1080 1366 1308 9 3 4
5 -10 5 -14 0 -56 -10 -95 -22z"/>
<path d="M3817 9079 c-160 -38 -230 -166 -181 -330 l17 -54 14 60 c7 32 24 70
36 83 29 32 93 62 134 62 31 0 32 1 26 34 -4 28 -1 39 20 60 30 30 53 32 123
11 65 -19 139 -69 170 -114 27 -40 32 -26 8 22 -67 129 -223 200 -367 166z"/>
<path d="M1680 9075 c0 -3 123 -102 272 -222 231 -183 284 -221 345 -244 89
-35 165 -73 222 -112 49 -33 47 -28 -15 54 -100 131 -320 302 -511 398 -69 34
-297 131 -309 131 -2 0 -4 -2 -4 -5z"/>
<path d="M7240 9031 c-63 -26 -151 -66 -196 -89 -186 -94 -399 -261 -498 -391
-62 -82 -64 -87 -15 -54 55 38 144 83 227 114 50 19 118 67 320 227 264 209
304 242 287 242 -6 0 -62 -22 -125 -49z"/>
<path d="M1665 9012 c121 -123 481 -443 504 -448 36 -7 188 -57 236 -78 36
-15 38 -15 20 0 -24 20 -150 80 -186 89 -14 3 -131 92 -260 196 -129 104 -261
210 -294 235 l-60 47 40 -41z"/>
<path d="M7338 8987 c-377 -310 -494 -398 -573 -430 -72 -29 -180 -87 -164
-87 4 0 39 14 79 31 40 17 106 39 147 50 42 10 83 25 92 31 29 24 501 460 501
464 0 7 -4 4 -82 -59z"/>
<path d="M1625 8960 c34 -68 80 -126 180 -229 103 -106 266 -251 283 -251 5 0
12 14 16 32 5 24 2 36 -11 48 -10 9 -110 99 -223 200 -113 101 -218 195 -234
209 l-28 26 17 -35z"/>
<path d="M7190 8769 c-211 -189 -245 -223 -243 -246 1 -14 7 -31 12 -36 20
-20 329 271 413 388 32 46 72 115 66 115 -2 0 -113 -99 -248 -221z"/>
<path d="M3914 8965 c-11 -29 8 -47 66 -62 30 -8 83 -29 118 -48 34 -19 65
-35 68 -35 10 0 -25 57 -52 84 -38 38 -94 65 -149 73 -37 5 -46 3 -51 -12z"/>
<path d="M4599 8947 c-26 -32 -79 -56 -130 -58 -23 -1 -22 -1 6 -14 40 -19
123 -18 176 0 48 17 112 62 104 74 -2 5 -26 11 -52 14 -26 3 -55 8 -63 11 -9
4 -25 -6 -41 -27z"/>
<path d="M4957 8964 c-21 -7 -62 -17 -90 -20 -43 -6 -60 -15 -98 -50 l-46 -42
60 -11 c133 -23 257 -111 306 -215 72 -155 63 -381 -25 -601 l-25 -63 27 -54
c57 -112 149 -218 190 -218 6 0 -1 33 -14 73 -21 62 -25 90 -24 197 0 69 7
200 16 293 40 421 -1 601 -158 691 -57 33 -76 36 -119 20z"/>
<path d="M1084 8845 c39 -273 213 -547 491 -773 71 -58 80 -62 83 -43 3 16
-33 57 -151 174 -229 225 -313 365 -326 545 l-6 74 -49 36 -49 36 7 -49z"/>
<path d="M7919 8855 l-46 -35 -5 -83 c-11 -168 -96 -308 -324 -534 -101 -100
-154 -159 -154 -173 0 -26 3 -24 95 50 222 180 389 415 453 636 19 65 38 174
30 174 -1 0 -24 -16 -49 -35z"/>
<path d="M1200 8837 c14 -12 160 -137 325 -278 l300 -256 60 -7 c33 -3 82 -13
109 -21 66 -20 76 -19 76 8 0 16 -16 32 -63 61 -125 79 -254 182 -352 281 -97
98 -104 103 -210 147 -91 39 -244 89 -265 88 -3 0 6 -11 20 -23z"/>
<path d="M7774 8835 c-45 -13 -126 -43 -180 -66 -93 -40 -105 -49 -199 -143
-106 -107 -210 -191 -337 -271 -63 -39 -78 -53 -78 -73 0 -20 4 -23 23 -19
115 27 166 37 189 37 21 0 98 60 335 261 338 287 352 299 338 298 -6 0 -46
-11 -91 -24z"/>
<path d="M3783 8825 c-30 -13 -73 -66 -73 -91 0 -7 19 -4 53 7 83 29 141 21
213 -27 l38 -26 103 12 c179 22 303 2 387 -63 27 -21 35 -24 28 -11 -39 73
-174 123 -330 124 -27 0 -64 11 -100 29 -117 59 -247 78 -319 46z"/>
<path d="M4220 8805 l-23 -25 54 0 c156 0 297 -75 342 -182 17 -42 17 -42 11
-8 -20 118 -147 212 -314 235 -40 5 -49 3 -70 -20z"/>
<path d="M4616 8767 c177 -86 243 -210 230 -439 -12 -224 -52 -351 -226 -708
-153 -317 -155 -320 -186 -439 -33 -127 -30 -145 7 -36 16 50 95 217 174 372
202 395 269 555 300 722 38 207 5 352 -111 480 l-53 58 -78 6 c-43 3 -89 9
-103 12 -14 3 7 -9 46 -28z"/>
<path d="M1250 8745 c8 -11 100 -119 204 -240 104 -121 191 -222 193 -224 4
-6 125 -22 130 -17 2 2 -96 95 -219 207 -314 287 -325 296 -308 274z"/>
<path d="M7537 8514 c-148 -135 -267 -248 -265 -250 4 -4 129 13 132 18 1 2
87 102 192 223 198 230 219 255 213 255 -2 0 -125 -111 -272 -246z"/>
<path d="M4867 8738 c123 -156 152 -253 132 -435 -18 -168 -76 -316 -250 -645
-110 -205 -195 -386 -187 -394 9 -9 302 475 373 615 56 112 124 293 141 376
22 104 16 242 -13 306 -26 58 -84 124 -142 161 -48 30 -70 36 -54 16z"/>
<path d="M1223 8675 c9 -53 61 -151 130 -245 58 -78 259 -301 279 -308 4 -2 8
21 8 52 l0 56 -206 240 c-113 132 -208 240 -211 240 -3 0 -3 -16 0 -35z"/>
<path d="M7618 8472 l-208 -242 0 -55 c0 -30 2 -55 4 -55 8 0 178 180 232 245
109 134 189 278 182 329 -2 15 -53 -38 -210 -222z"/>
<path d="M4630 8675 c0 -3 7 -20 16 -37 19 -36 15 -127 -5 -152 -25 -30 -76
-20 -127 25 -64 55 -122 79 -193 79 -84 0 -147 -37 -173 -102 -10 -24 -3 -23
37 8 69 53 142 42 288 -42 99 -57 139 -64 187 -32 19 13 40 35 47 48 17 34 16
105 -2 140 -13 26 -75 80 -75 65z"/>
<path d="M4154 8660 c-34 -5 -140 -27 -235 -50 -148 -36 -185 -41 -258 -38
-70 2 -92 7 -118 26 l-33 23 0 -39 c0 -122 145 -179 352 -137 147 29 228 61
275 109 61 62 105 81 183 80 36 -1 82 -8 104 -17 30 -14 36 -14 27 -3 -33 40
-181 62 -297 46z"/>
<path d="M950 8570 c-9 -21 -15 -65 -15 -110 1 -89 25 -146 108 -255 51 -67
57 -71 153 -111 138 -57 176 -78 369 -203 93 -60 171 -108 173 -107 11 12 -23
43 -111 102 -425 283 -634 494 -655 661 l-7 58 -15 -35z"/>
<path d="M8077 8548 c-14 -137 -153 -298 -442 -513 -60 -44 -154 -110 -208
-144 -85 -55 -127 -94 -115 -106 2 -2 80 46 173 106 183 119 261 162 382 210
83 32 105 51 171 149 58 84 74 128 79 205 3 54 -1 79 -15 110 l-19 40 -6 -57z"/>
<path d="M1010 8551 c0 -71 94 -208 223 -327 117 -107 442 -342 455 -329 10
10 -22 39 -133 122 -229 171 -421 362 -507 505 -37 60 -38 61 -38 29z"/>
<path d="M8000 8517 c-76 -131 -275 -328 -505 -499 -111 -83 -143 -113 -133
-124 13 -13 342 228 466 341 124 114 217 252 210 312 -3 30 -4 29 -38 -30z"/>
<path d="M2146 8489 c-20 -67 -20 -178 -1 -253 9 -33 14 -60 13 -62 -2 -1 -36
9 -77 22 -108 35 -107 30 4 -25 99 -49 189 -116 240 -179 50 -60 44 -22 -6 44
-100 133 -135 240 -125 385 5 77 3 88 -14 104 -18 16 -19 15 -34 -36z"/>
<path d="M6868 8521 c-12 -17 -15 -39 -11 -105 9 -134 -29 -250 -121 -374 -25
-34 -46 -67 -46 -73 0 -6 26 16 58 48 72 73 129 113 235 164 85 41 63 46 -37
8 -28 -10 -51 -17 -53 -15 -2 2 3 32 12 67 20 75 16 215 -6 269 l-15 34 -16
-23z"/>
<path d="M4770 8468 c0 -7 -7 -26 -16 -43 -11 -22 -16 -67 -18 -170 -2 -106
-8 -156 -23 -205 -29 -92 -77 -190 -127 -257 -36 -49 -48 -77 -74 -178 -17
-66 -29 -121 -27 -123 6 -6 77 117 135 234 129 260 200 556 174 717 -6 34 -24
53 -24 25z"/>
<path d="M4236 8452 c-2 -4 21 -21 52 -37 63 -33 132 -96 156 -144 42 -80 27
-213 -36 -316 -65 -107 -170 -206 -236 -224 l-27 -8 35 -18 c23 -12 57 -19
100 -19 83 -1 148 33 226 117 96 103 174 306 174 452 l0 61 -52 11 c-29 6
-112 38 -185 72 -123 57 -193 75 -207 53z"/>
<path d="M2370 8447 c0 -2 24 -20 54 -40 83 -55 189 -150 230 -205 20 -27 36
-52 36 -55 0 -4 -17 -9 -37 -12 -77 -13 -78 -14 -52 -41 25 -26 82 -35 73 -11
-7 20 21 39 61 40 26 1 43 -7 65 -28 20 -20 30 -24 30 -14 0 23 -50 67 -92 81
-25 9 -53 33 -85 72 -51 63 -154 147 -234 191 -27 14 -49 24 -49 22z"/>
<path d="M6613 8414 c-94 -56 -169 -119 -220 -184 -30 -39 -55 -61 -74 -65
-38 -8 -76 -40 -95 -78 l-16 -32 33 32 c19 17 45 34 59 37 31 8 75 -15 74 -37
-3 -26 48 -22 75 7 26 28 23 31 -41 40 -27 4 -48 10 -48 13 0 3 19 31 42 61
46 59 142 144 225 200 46 30 60 42 50 42 -1 0 -30 -16 -64 -36z"/>
<path d="M2301 8370 c25 -36 80 -113 123 -173 l79 -107 -47 -41 c-26 -23 -53
-54 -62 -70 -14 -27 -18 -29 -79 -29 -35 0 -67 -4 -70 -10 -4 -6 5 -10 19 -10
27 0 36 -24 14 -34 -7 -3 5 -4 27 -1 22 2 57 0 77 -4 l37 -9 36 60 c27 43 50
66 86 86 27 15 49 29 49 32 0 6 -287 331 -317 360 -9 8 4 -14 28 -50z"/>
<path d="M6625 8251 c-88 -99 -161 -184 -163 -189 -1 -5 9 -13 23 -16 32 -8
107 -84 124 -124 12 -29 13 -29 92 -28 44 0 75 2 69 4 -18 6 -11 29 13 38 16
6 4 9 -44 11 -59 3 -68 7 -80 30 -7 14 -36 45 -62 69 l-49 44 108 150 c134
185 137 190 132 190 -2 0 -76 -81 -163 -179z"/>
<path d="M2377 8364 c29 -32 82 -92 120 -131 65 -69 70 -72 101 -65 l33 7 -63
64 c-70 71 -155 139 -208 166 -34 18 -34 17 17 -41z"/>
<path d="M6655 8385 c-63 -42 -162 -128 -204 -176 l-31 -37 35 -4 c34 -4 40 0
114 81 174 193 178 199 86 136z"/>
<path d="M2242 8303 c21 -85 60 -171 103 -227 l27 -36 29 29 c16 16 29 32 29
36 0 8 -198 275 -204 275 -2 0 5 -35 16 -77z"/>
<path d="M6720 8247 c-55 -74 -100 -136 -100 -139 0 -3 13 -20 29 -37 l30 -32
39 58 c21 32 44 68 51 80 13 25 62 203 55 203 -2 0 -49 -60 -104 -133z"/>
<path d="M1680 8153 c0 -194 75 -372 225 -530 l54 -58 1 41 c0 42 -5 52 -83
160 -51 71 -95 168 -112 250 -16 77 -19 127 -7 122 5 -1 64 -61 131 -133 67
-71 125 -131 129 -132 9 -3 58 34 52 40 -3 2 -84 71 -180 153 -96 82 -183 155
-193 163 -16 13 -17 8 -17 -76z"/>
<path d="M7205 8105 c-88 -76 -175 -151 -194 -168 l-34 -29 24 -19 c13 -10 27
-18 31 -16 4 1 62 61 129 132 67 72 126 132 131 133 12 5 9 -45 -7 -122 -17
-82 -61 -179 -112 -250 -78 -108 -83 -118 -83 -160 l1 -41 56 60 c150 159 227
345 221 533 l-3 86 -160 -139z"/>
<path d="M1760 8207 c3 -2 78 -63 168 -135 l163 -130 52 20 c29 12 61 24 71
27 16 6 9 15 -43 53 -73 55 -139 88 -258 127 -88 29 -162 48 -153 38z"/>
<path d="M7155 8176 c-137 -46 -199 -75 -275 -132 l-65 -48 41 -12 c22 -6 54
-19 71 -27 l29 -16 169 135 c95 76 159 134 149 134 -11 -1 -64 -16 -119 -34z"/>
<path d="M772 8090 c-40 -4 -75 -10 -77 -12 -3 -2 143 -74 323 -159 l327 -156
102 -6 c89 -6 215 -25 277 -42 12 -4 -15 14 -59 38 -44 24 -150 86 -235 139
-186 114 -236 140 -332 172 -84 27 -215 38 -326 26z"/>
<path d="M8060 8094 c-105 -14 -239 -75 -447 -205 -77 -49 -178 -108 -222
-130 -45 -23 -80 -43 -79 -44 2 -2 41 5 88 16 47 10 134 22 195 25 l109 7 328
156 c237 112 323 158 309 163 -24 8 -235 17 -281 12z"/>
<path d="M580 8084 c0 -11 59 -124 94 -178 46 -73 182 -214 266 -277 88 -66
208 -125 304 -149 130 -33 114 -4 -32 58 -253 109 -463 301 -512 469 -11 36
-19 44 -61 62 -51 22 -59 24 -59 15z"/>
<path d="M8408 8069 c-41 -19 -48 -26 -63 -72 -24 -75 -55 -124 -130 -205 -82
-89 -222 -184 -365 -247 -157 -70 -178 -99 -46 -65 95 24 217 84 305 149 75
56 200 182 253 256 31 44 108 186 108 200 0 9 -13 5 -62 -16z"/>
<path d="M1800 8023 c1 -40 49 -147 105 -234 l49 -74 7 48 c4 27 13 55 20 63
12 15 16 10 -128 167 -51 56 -53 57 -53 30z"/>
<path d="M7154 7947 l-91 -101 13 -33 c8 -18 14 -47 14 -65 0 -28 2 -30 15
-18 27 28 114 181 130 230 33 99 17 97 -81 -13z"/>
<path d="M2615 8025 l-40 -13 36 -1 c42 -1 53 -9 37 -28 -17 -20 -7 -23 40
-11 52 13 70 0 110 -77 20 -40 27 -68 30 -141 l4 -92 51 -7 c29 -3 73 -17 99
-30 30 -15 50 -20 54 -14 9 15 -54 76 -97 96 l-36 16 5 62 c8 109 -47 213
-131 244 -38 14 -113 13 -162 -4z"/>
<path d="M6265 8026 c-81 -35 -133 -143 -122 -251 l5 -52 -37 -16 c-43 -19
-106 -81 -97 -96 4 -6 24 -1 54 14 26 14 71 28 101 32 l53 8 2 85 c2 91 25
161 69 208 22 23 45 24 112 5 19 -5 19 -5 2 14 -21 24 -14 33 32 34 l36 1 -35
13 c-45 17 -137 18 -175 1z"/>
<path d="M2545 7982 c-43 -15 -54 -25 -80 -68 l-30 -50 -95 0 c-56 0 -103 -4
-115 -11 -17 -11 -14 -12 29 -13 48 0 48 -1 43 -27 -5 -24 -2 -28 16 -28 12
-1 42 -4 67 -8 44 -7 46 -7 64 28 11 19 42 55 70 80 134 117 139 133 31 97z"/>
<path d="M6430 7993 c1 -14 45 -58 86 -85 23 -14 58 -52 79 -83 31 -47 41 -56
59 -51 11 4 39 9 62 12 36 6 40 9 36 30 -4 23 -2 24 44 24 43 1 46 2 29 13
-11 6 -60 12 -114 12 -83 1 -96 4 -105 21 -32 58 -58 83 -103 98 -51 17 -73
20 -73 9z"/>
<path d="M765 7943 c36 -68 117 -159 193 -220 59 -47 298 -180 307 -171 2 2
-6 30 -18 62 l-22 58 -237 159 c-131 87 -240 159 -243 159 -4 0 5 -21 20 -47z"/>
<path d="M815 7982 c6 -5 102 -69 214 -141 144 -93 207 -129 215 -122 8 7 21
4 41 -9 25 -16 41 -18 129 -13 89 5 229 -6 306 -24 14 -3 22 -3 19 1 -13 14
-159 38 -274 45 l-120 8 -270 132 c-148 73 -265 128 -260 123z"/>
<path d="M7970 7859 l-264 -130 -131 -10 c-71 -5 -155 -16 -185 -24 -38 -10
-43 -13 -15 -8 22 3 115 7 207 8 132 2 171 6 189 19 15 10 26 12 35 6 8 -7 72
28 215 121 187 121 231 150 219 148 -3 0 -124 -59 -270 -130z"/>
<path d="M8058 7829 c-192 -129 -239 -164 -244 -186 -4 -16 -13 -41 -21 -56
-8 -16 -12 -31 -9 -34 7 -7 231 112 287 153 66 48 178 172 212 233 16 28 25
51 20 50 -4 0 -115 -72 -245 -160z"/>
<path d="M2627 7925 c-48 -18 -118 -68 -144 -104 -32 -42 -64 -110 -85 -176
l-18 -60 50 -47 c28 -27 55 -48 60 -48 5 0 27 46 49 103 22 56 65 155 95 220
31 65 56 120 56 123 0 7 -24 3 -63 -11z"/>
<path d="M2655 7789 c-67 -150 -125 -299 -125 -320 0 -12 128 -3 167 12 25 9
77 112 95 188 8 38 9 66 1 110 -12 62 -50 161 -63 161 -4 0 -38 -68 -75 -151z
m90 -4 c9 -72 -1 -138 -32 -200 -14 -27 -27 -52 -29 -54 -7 -7 -94 -18 -94
-12 0 6 71 176 116 278 11 24 22 43 26 43 4 0 10 -25 13 -55z"/>
<path d="M6292 7895 c-54 -112 -51 -223 12 -345 37 -71 42 -74 158 -86 l68 -7
-14 39 c-50 140 -184 444 -196 444 -3 0 -16 -20 -28 -45z m129 -274 c22 -52
39 -96 39 -98 0 -6 -75 -2 -87 5 -7 4 -25 34 -40 67 -22 49 -28 74 -28 135 0
41 4 84 9 95 7 17 13 10 38 -45 17 -36 48 -107 69 -159z"/>
<path d="M6360 7937 c0 -2 26 -60 58 -128 33 -68 76 -168 97 -221 21 -54 42
-98 46 -98 4 0 31 21 59 48 l51 47 -26 80 c-42 127 -99 201 -190 247 -31 16
-95 33 -95 25z"/>
<path d="M2125 7901 c-45 -20 -101 -78 -121 -126 -19 -46 -27 -143 -15 -200 9
-48 9 -51 -22 -84 -23 -24 -26 -30 -11 -23 11 6 26 18 34 26 15 19 47 21 53 4
3 -10 7 -10 17 -1 10 9 9 25 -5 79 -33 131 8 221 130 285 38 20 71 41 73 48 6
18 -88 13 -133 -8z"/>
<path d="M6790 7910 c0 -5 24 -21 53 -36 77 -39 115 -70 139 -117 25 -50 29
-130 9 -200 -11 -39 -11 -50 -1 -60 10 -9 14 -9 17 1 8 21 37 14 78 -20 l40
-32 -30 33 c-30 32 -30 34 -30 144 0 92 -4 120 -21 157 -22 48 -89 115 -130
130 -33 13 -124 13 -124 0z"/>
<path d="M4937 7778 c-81 -167 -108 -249 -114 -348 -7 -116 4 -150 88 -255 94
-118 119 -171 119 -255 l1 -65 24 40 c39 63 41 110 10 196 -56 156 -67 197
-72 285 -7 105 9 227 41 330 l23 70 -25 57 c-13 31 -28 57 -33 57 -4 0 -32
-51 -62 -112z"/>
<path d="M2190 7813 c-59 -8 -70 -15 -90 -52 -29 -59 -34 -108 -16 -185 l16
-68 -34 -47 c-72 -99 -102 -193 -76 -242 12 -22 14 -21 27 30 19 76 58 142
126 217 l60 65 -19 41 c-33 73 -17 208 25 208 10 0 24 6 30 14 13 16 -7 24
-49 19z"/>
<path d="M6812 7813 c-18 -7 4 -33 29 -33 10 0 24 -10 31 -22 18 -35 15 -147
-6 -191 l-18 -37 58 -63 c67 -71 120 -163 130 -225 8 -52 21 -54 30 -5 10 54
-10 118 -65 201 l-48 73 14 62 c9 35 12 83 9 110 -6 54 -38 113 -64 121 -35 9
-87 14 -100 9z"/>
<path d="M486 7757 c-27 -88 -9 -144 66 -213 56 -52 150 -107 253 -148 l80
-33 195 5 195 5 -122 18 c-205 30 -355 80 -481 162 -97 63 -148 131 -161 216
l-8 46 -17 -58z"/>
<path d="M8536 7758 c-28 -183 -325 -337 -736 -381 -31 -3 276 -12 357 -10 19
0 88 28 160 63 142 69 229 144 252 213 15 43 8 114 -13 142 -12 17 -14 14 -20
-27z"/>
<path d="M8474 7749 c-74 -107 -298 -215 -577 -278 -73 -16 -150 -32 -172 -36
-25 -4 -46 -14 -53 -26 -11 -17 -9 -19 19 -19 17 0 79 7 138 16 350 52 633
192 671 334 6 23 9 44 7 46 -2 2 -17 -14 -33 -37z"/>
<path d="M546 7753 c30 -126 197 -231 494 -312 84 -23 255 -51 313 -51 33 0
36 2 26 18 -8 13 -48 25 -143 44 -328 67 -571 174 -649 285 -35 49 -50 55 -41
16z"/>
<path d="M6740 7764 c-8 -1 -32 -6 -53 -9 -31 -5 -38 -10 -34 -23 3 -9 14 -41
24 -70 l19 -53 74 66 c41 37 77 71 78 76 2 5 -12 9 -31 9 -20 0 -41 2 -49 4
-7 2 -20 2 -28 0z"/>
<path d="M2207 7753 c-3 -5 28 -40 70 -77 l76 -68 24 67 c14 37 22 70 18 73
-10 11 -182 15 -188 5z"/>
<path d="M5077 7743 c-13 -20 -39 -177 -44 -263 -17 -281 80 -441 238 -394 55
17 62 29 22 39 -44 11 -93 54 -114 99 -22 49 -24 130 -7 303 l12 122 -51 51
c-28 28 -53 47 -56 43z"/>
<path d="M6723 7596 c-72 -67 -128 -122 -123 -124 18 -7 186 50 207 70 30 28
55 97 51 140 l-3 35 -132 -121z"/>
<path d="M2190 7683 c0 -48 20 -103 48 -134 20 -22 49 -36 115 -55 49 -14 92
-24 97 -22 8 3 -243 238 -254 238 -3 0 -6 -12 -6 -27z"/>
<path d="M1290 7670 c0 -21 50 -132 85 -191 45 -74 147 -179 235 -241 46 -33
92 -54 157 -74 51 -15 96 -25 99 -21 15 15 -9 36 -81 70 -195 93 -355 246
-406 391 -10 27 -24 43 -51 57 -21 11 -38 15 -38 9z"/>
<path d="M7721 7661 c-25 -13 -39 -32 -53 -66 -59 -149 -233 -309 -425 -391
-45 -19 -63 -32 -63 -46 0 -23 -1 -23 105 8 184 53 362 225 450 432 19 45 31
82 27 82 -4 -1 -22 -9 -41 -19z"/>
<path d="M1432 7640 c28 -17 441 -201 443 -198 1 2 10 18 20 37 l17 34 -34 33
c-26 26 -52 38 -128 58 -92 23 -244 46 -305 46 -24 -1 -27 -2 -13 -10z"/>
<path d="M7447 7634 c-155 -24 -241 -51 -277 -89 l-33 -34 22 -35 22 -35 52
24 c29 13 129 58 222 100 94 42 172 79 174 81 9 8 -97 2 -182 -12z"/>
<path d="M4380 7594 c-48 -13 -94 -13 -164 -2 -14 2 -22 -7 -33 -38 -18 -52
-104 -157 -174 -211 -119 -91 -219 -125 -261 -86 -17 15 -18 15 -18 -6 0 -36
26 -86 54 -104 66 -44 200 -30 331 33 90 44 160 98 223 173 71 85 146 259 110
256 -7 -1 -38 -8 -68 -15z"/>
<path d="M3048 7532 c-22 -61 -83 -131 -141 -162 l-44 -23 16 -39 c9 -21 21
-38 26 -38 6 0 35 13 65 29 98 50 142 149 108 244 l-13 37 -17 -48z"/>
<path d="M5971 7534 c-21 -76 -6 -138 45 -188 31 -31 111 -76 131 -76 5 0 16
18 25 40 l16 40 -33 16 c-59 28 -113 83 -144 146 l-29 61 -11 -39z"/>
<path d="M2872 7519 l-124 -40 44 -49 c23 -26 48 -48 55 -49 33 -3 163 134
163 172 0 10 -3 9 -138 -34z"/>
<path d="M6040 7553 c0 -5 13 -29 29 -54 26 -42 118 -120 137 -118 5 1 28 23
52 49 l43 49 -108 34 c-154 49 -153 49 -153 40z"/>
<path d="M1450 7542 c0 -22 100 -128 170 -181 76 -57 217 -137 226 -129 2 2 1
21 -3 41 -5 35 -13 41 -199 156 -107 66 -194 117 -194 113z"/>
<path d="M7405 7429 c-185 -114 -190 -118 -196 -156 -4 -21 -5 -40 -4 -42 8
-8 170 87 238 140 64 50 167 164 156 173 -2 2 -89 -50 -194 -115z"/>
<path d="M2158 7432 c-64 -68 -113 -148 -106 -175 2 -10 40 7 127 54 68 37
157 80 198 96 40 15 73 30 73 33 0 5 -203 60 -221 60 -4 0 -36 -31 -71 -68z"/>
<path d="M4741 7438 c-29 -83 -37 -174 -21 -224 19 -59 54 -99 139 -161 42
-31 84 -65 93 -77 9 -11 19 -18 22 -16 12 13 -38 96 -98 158 -100 107 -111
135 -111 270 0 61 -1 112 -2 112 0 0 -11 -28 -22 -62z"/>
<path d="M6697 7472 c-53 -14 -94 -29 -90 -33 5 -4 42 -21 83 -38 41 -17 128
-60 193 -95 130 -70 138 -69 91 20 -29 57 -141 174 -164 173 -8 0 -59 -12
-113 -27z"/>
<path d="M1942 7426 l-56 -54 0 -89 c0 -75 4 -97 27 -148 16 -33 49 -81 74
-107 35 -36 44 -52 40 -69 -5 -20 -3 -19 22 8 15 16 33 32 40 34 9 3 -4 23
-37 56 -69 72 -96 131 -96 213 0 50 6 77 26 115 56 111 45 123 -40 41z"/>
<path d="M7039 7458 c5 -13 19 -45 31 -73 16 -36 23 -69 23 -116 0 -83 -26
-140 -95 -212 -35 -35 -46 -53 -37 -56 8 -2 27 -18 43 -35 25 -27 28 -28 22
-8 -6 18 2 33 46 80 69 75 93 139 92 250 l0 83 -54 54 c-58 59 -86 72 -71 33z"/>
<path d="M2616 7434 c-43 -7 -80 -15 -83 -17 -2 -3 67 -96 154 -207 l158 -201
7 98 c7 116 2 163 -25 221 -19 43 -100 123 -121 121 -6 -1 -46 -7 -90 -15z
m127 -64 c41 -32 67 -98 67 -169 0 -35 -4 -60 -9 -56 -5 3 -48 55 -96 116 -93
120 -95 129 -24 129 21 0 47 -8 62 -20z"/>
<path d="M6288 7411 c-80 -71 -100 -140 -90 -304 l7 -99 158 203 c107 136 155
204 147 209 -7 4 -40 11 -74 14 -33 4 -70 9 -81 12 -15 4 -35 -7 -67 -35z
m131 -30 c11 -7 -6 -35 -80 -127 l-94 -118 -3 54 c-4 70 9 115 48 163 27 32
37 37 73 37 23 0 48 -4 56 -9z"/>
<path d="M2250 7308 c-110 -55 -200 -105 -200 -109 0 -11 103 -22 141 -15 19
4 82 18 141 33 l106 26 12 61 c6 34 14 71 17 84 3 12 0 22 -6 22 -5 0 -100
-46 -211 -102z"/>
<path d="M6587 7378 c3 -18 11 -55 17 -83 l11 -50 85 -22 c121 -33 201 -44
254 -37 25 4 46 9 46 13 0 10 -351 191 -397 205 -21 7 -22 5 -16 -26z"/>
<path d="M2506 7379 c-3 -8 -9 -38 -15 -67 -11 -51 -10 -55 18 -95 39 -57 129
-140 177 -165 49 -24 114 -46 120 -39 3 3 -59 85 -137 184 -172 215 -157 199
-163 182z"/>
<path d="M6394 7212 c-170 -214 -166 -207 -128 -198 90 21 212 111 274 202 29
41 29 44 18 101 -6 32 -14 61 -17 65 -3 4 -69 -73 -147 -170z"/>
<path d="M4395 7323 c-38 -58 -152 -166 -215 -204 -78 -46 -196 -78 -294 -80
l-71 -2 58 -7 c32 -4 60 -10 63 -13 3 -3 -6 -21 -20 -40 -27 -36 -106 -197
-106 -217 0 -7 18 15 41 49 22 34 74 97 115 140 64 69 80 80 131 95 74 21 186
83 240 133 31 28 47 54 62 102 12 36 19 66 17 68 -2 2 -11 -9 -21 -24z"/>
<path d="M885 7289 c-139 -17 -393 -88 -429 -120 -13 -11 972 0 1059 12 78 11
88 16 61 33 -10 6 -40 27 -65 46 l-46 35 -250 2 c-137 1 -286 -3 -330 -8z"/>
<path d="M7595 7293 c-11 -3 -36 -18 -55 -33 -19 -15 -46 -33 -59 -39 -16 -9
-20 -16 -13 -23 17 -17 232 -26 697 -31 486 -5 484 -6 307 53 -189 62 -258 72
-572 75 -157 2 -294 1 -305 -2z"/>
<path d="M4609 7247 c-19 -18 -47 -41 -62 -52 -21 -15 -32 -38 -46 -97 -23
-89 -58 -161 -99 -206 l-30 -32 24 -6 c42 -11 110 6 159 38 40 27 165 158 165
174 0 3 -11 25 -25 48 -14 23 -31 70 -37 104 l-13 61 -36 -32z"/>
<path d="M2357 7193 c-45 -12 -61 -21 -68 -40 -14 -37 -11 -261 5 -318 42
-160 170 -288 381 -380 66 -29 65 -25 -11 32 -106 79 -194 213 -229 348 -25
96 -20 256 11 358 7 21 -9 21 -89 0z"/>
<path d="M6605 7193 c26 -68 33 -251 14 -345 -6 -29 -29 -91 -51 -138 -32 -67
-57 -100 -117 -160 -42 -41 -89 -85 -106 -97 -53 -39 97 31 176 82 187 121
271 291 254 510 -10 137 -6 129 -88 148 -89 21 -91 21 -82 0z"/>
<path d="M2507 7123 c-12 -67 -7 -187 8 -248 27 -105 72 -183 154 -265 127
-128 277 -209 511 -274 64 -18 299 -61 383 -70 l57 -6 0 29 c0 42 -23 61 -77
61 -66 0 -240 27 -349 55 -419 106 -666 361 -638 656 4 36 0 49 -19 72 l-24
29 -6 -39z"/>
<path d="M6512 7131 c-20 -27 -20 -34 -11 -90 24 -132 -32 -290 -140 -396
-133 -130 -282 -199 -541 -251 -60 -12 -152 -18 -315 -21 l-230 -4 -3 -46 -3
-46 158 6 c355 14 618 71 828 180 116 61 241 186 278 281 34 83 48 185 37 268
-7 59 -27 148 -34 148 -1 0 -12 -13 -24 -29z"/>
<path d="M1535 7140 c-11 -5 -229 -9 -484 -9 -255 -1 -462 -4 -458 -7 4 -4
621 -54 796 -64 2 0 -4 -10 -15 -22 -14 -16 -8 -14 26 9 25 17 74 47 110 67
60 33 73 47 25 26z"/>
<path d="M2040 7130 c5 -8 29 -35 54 -59 42 -42 47 -44 91 -39 25 3 47 7 49 9
2 2 5 27 8 54 l5 50 -108 0 c-92 0 -106 -2 -99 -15z"/>
<path d="M6090 7140 c-8 -5 -45 -21 -81 -35 l-66 -26 0 -53 c0 -172 -143 -260
-463 -288 -74 -6 -138 -16 -142 -22 -4 -6 -8 -56 -8 -111 -1 -60 -7 -116 -15
-140 -8 -22 -15 -41 -15 -42 0 -7 231 -2 321 7 106 11 283 49 375 80 128 44
227 103 310 185 102 99 134 163 142 279 l5 78 -74 -49 c-92 -62 -167 -101
-204 -105 -27 -3 -30 1 -48 57 -10 33 -19 90 -19 128 0 37 -1 67 -2 67 -1 0
-8 -5 -16 -10z m-25 -302 c20 -55 23 -56 126 -32 39 9 73 13 77 10 3 -4 -26
-37 -64 -75 -136 -133 -335 -199 -683 -226 l-73 -5 6 37 c13 70 14 72 64 78
185 24 301 61 390 122 50 34 99 93 116 137 9 25 19 13 41 -46z"/>
<path d="M6808 7095 c3 -27 5 -51 7 -52 1 -2 23 -6 49 -9 46 -7 49 -6 92 37
77 74 77 74 -45 74 l-108 0 5 -50z"/>
<path d="M7535 7118 c33 -18 83 -49 110 -67 32 -22 43 -27 32 -13 -19 20 -18
21 25 26 23 3 178 15 343 26 466 31 461 35 -55 40 -261 3 -484 9 -495 13 -11
5 7 -6 40 -25z"/>
<path d="M2942 7086 c1 -54 -17 -146 -34 -179 -6 -13 -16 -16 -36 -11 -42 11
-134 59 -206 109 -65 46 -66 46 -66 21 0 -53 51 -184 94 -243 140 -190 395
-307 827 -377 36 -6 36 -6 50 41 7 27 14 91 14 143 l0 95 -90 7 c-182 13 -322
91 -371 206 -9 21 -16 69 -17 109 l-1 72 -61 22 c-33 11 -64 25 -69 30 -24 22
-34 8 -34 -45z m126 -298 c36 -57 117 -125 178 -147 30 -12 94 -28 141 -36 48
-8 88 -17 91 -20 2 -2 1 -20 -2 -40 -8 -41 -17 -43 -126 -20 -191 40 -358 103
-456 171 -44 30 -118 113 -110 122 3 2 36 -3 75 -13 94 -23 111 -19 128 30 24
73 24 72 41 30 10 -23 27 -57 40 -77z"/>
<path d="M337 7109 c9 -33 103 -121 166 -157 145 -82 307 -125 544 -144 l148
-12 55 -48 c65 -58 169 -111 260 -132 74 -17 89 -14 36 8 -43 18 -46 33 -8 38
22 3 16 7 -33 22 -83 25 -137 59 -193 121 l-47 52 -170 6 c-243 8 -415 47
-527 118 -47 30 -138 122 -138 140 0 5 -22 9 -49 9 -45 0 -49 -2 -44 -21z"/>
<path d="M8620 7121 c0 -4 -18 -29 -41 -55 -116 -132 -300 -191 -628 -203
l-165 -6 -52 -57 c-52 -56 -133 -104 -194 -117 -36 -7 -50 -23 -21 -23 33 0
24 -20 -15 -36 -53 -22 -37 -26 37 -8 93 24 182 69 253 129 l63 53 144 11
c226 18 358 50 504 123 97 49 162 102 193 157 l23 41 -50 0 c-28 0 -51 -4 -51
-9z"/>
<path d="M1629 7096 c-90 -32 -347 -198 -316 -204 17 -3 650 48 655 53 2 2
-17 24 -42 49 -25 25 -46 50 -46 55 0 6 -197 63 -212 61 -2 -1 -19 -7 -39 -14z"/>
<path d="M7266 7085 c-59 -15 -93 -30 -99 -42 -6 -10 -28 -35 -50 -56 -22 -20
-38 -39 -36 -41 6 -6 660 -58 665 -53 8 8 -179 134 -255 173 -90 45 -118 48
-225 19z"/>
<path d="M4302 7058 c-17 -18 -41 -55 -53 -83 -27 -60 -29 -156 -5 -280 9 -44
16 -105 16 -134 0 -43 3 -52 12 -43 9 9 12 66 13 195 1 191 9 230 47 243 16 5
18 14 16 70 -2 35 -5 64 -9 64 -3 0 -19 -15 -37 -32z"/>
<path d="M559 7051 c85 -76 251 -126 451 -136 58 -3 129 -8 158 -10 50 -5 53
-4 62 22 5 16 17 41 25 57 9 16 12 32 8 36 -7 6 -131 16 -673 56 l-65 5 34
-30z"/>
<path d="M8150 7054 c-146 -12 -289 -23 -317 -23 -29 -1 -53 -4 -53 -7 0 -3
12 -31 26 -63 l26 -56 131 6 c277 13 427 53 528 139 l34 29 -55 -1 c-30 0
-174 -11 -320 -24z"/>
<path d="M4713 6985 c-30 -38 -43 -65 -43 -86 0 -18 21 -77 46 -133 41 -88 47
-113 53 -191 l7 -90 12 53 c14 60 10 96 -24 234 -30 120 -31 188 -5 212 13 12
21 14 26 6 4 -6 41 -27 83 -46 42 -19 86 -43 97 -52 20 -17 20 -17 0 6 -10 13
-56 46 -102 73 -45 28 -85 54 -88 60 -11 16 -19 10 -62 -46z"/>
<path d="M5130 6992 c0 -22 -6 -55 -14 -74 -14 -32 -13 -36 13 -75 18 -26 38
-83 55 -150 37 -151 56 -216 62 -211 6 6 -42 387 -58 456 -9 40 -9 55 0 64 19
19 14 24 -23 26 -34 3 -35 2 -35 -36z"/>
<path d="M4162 6976 c-78 -108 -96 -214 -55 -307 23 -51 113 -151 120 -132 2
6 -10 65 -28 130 -27 102 -31 129 -27 204 3 47 11 95 17 108 24 44 5 42 -27
-3z"/>
<path d="M2168 7003 c-21 -2 -38 -7 -38 -11 0 -4 -9 -41 -21 -82 -41 -155 -23
-239 67 -319 55 -49 83 -58 124 -41 35 15 34 12 14 52 -9 17 -13 40 -10 54 4
15 -5 59 -23 113 -17 49 -33 123 -37 165 -5 61 -10 76 -23 74 -9 -1 -33 -3
-53 -5z"/>
<path d="M3764 6979 c-26 -51 -44 -153 -44 -251 0 -98 12 -129 24 -63 11 58
56 185 90 256 l32 65 -43 10 c-43 10 -45 10 -59 -17z"/>
<path d="M6806 6934 c-4 -44 -20 -117 -36 -164 -16 -47 -27 -95 -24 -106 3
-12 -2 -38 -10 -59 -9 -20 -16 -39 -16 -41 0 -2 18 -8 39 -15 35 -10 43 -9 75
10 100 62 147 162 126 271 -20 108 -42 170 -59 170 -9 0 -32 3 -52 6 l-36 6
-7 -78z"/>
<path d="M5224 6986 c-3 -8 -1 -37 5 -63 6 -27 18 -121 25 -211 8 -90 16 -166
19 -168 6 -6 22 278 19 326 -4 52 -20 95 -42 115 -18 16 -20 16 -26 1z"/>
<path d="M2068 6943 c-25 -28 -44 -73 -66 -150 -16 -59 -18 -80 -10 -110 18
-67 46 -109 107 -165 58 -52 60 -56 71 -123 19 -118 74 -215 142 -251 30 -16
105 -19 127 -5 11 7 5 13 -25 26 -48 20 -109 78 -135 127 -22 43 -49 149 -49
195 0 27 -7 37 -37 57 -53 33 -99 84 -117 128 -22 51 -20 153 3 227 19 62 16
75 -11 44z"/>
<path d="M6960 6957 c0 -3 7 -32 15 -64 21 -79 19 -178 -4 -228 -18 -41 -85
-108 -124 -126 -19 -9 -24 -23 -34 -93 -6 -46 -21 -106 -33 -133 -25 -60 -90
-126 -144 -148 -30 -13 -36 -19 -25 -26 22 -14 97 -11 127 5 69 36 127 139
143 254 9 65 11 68 69 120 103 92 129 160 103 265 -17 69 -53 147 -77 166 -9
8 -16 11 -16 8z"/>
<path d="M3687 6902 c-9 -21 -20 -65 -26 -98 -12 -67 -34 -364 -27 -371 4 -5
189 96 256 140 25 17 59 43 75 58 l31 29 54 -48 c29 -26 82 -75 117 -109 41
-41 58 -53 49 -35 -8 15 -42 51 -75 80 -84 74 -105 116 -106 217 0 44 3 98 8
120 15 79 -12 9 -36 -93 -28 -119 -45 -148 -100 -172 -47 -21 -207 -63 -214
-57 -11 11 -6 314 5 341 7 16 11 31 9 33 -3 2 -11 -14 -20 -35z"/>
<path d="M4790 6894 c0 -15 10 -59 21 -98 12 -39 27 -102 33 -140 l12 -69 27
60 c32 72 61 179 53 199 -4 12 -124 74 -142 74 -2 0 -4 -12 -4 -26z"/>
<path d="M1630 6885 c-276 -25 -256 -32 100 -37 l214 -3 7 33 6 32 -46 -1
c-25 -1 -152 -12 -281 -24z"/>
<path d="M3963 6887 c-58 -65 -183 -248 -183 -269 0 -15 84 28 121 61 34 32
42 48 64 130 13 52 23 96 21 98 -1 2 -12 -7 -23 -20z"/>
<path d="M7099 6878 l7 -33 174 3 c96 1 220 6 275 9 l100 7 -240 22 c-132 13
-259 23 -281 23 l-41 1 6 -32z"/>
<path d="M4578 6847 c-54 -44 -35 -97 71 -202 71 -69 71 -69 71 -39 0 17 -22
77 -50 133 -27 56 -50 109 -50 117 0 19 -10 17 -42 -9z"/>
<path d="M320 6822 c0 -27 40 -114 68 -150 74 -93 233 -137 462 -130 115 4
150 10 235 36 55 17 129 39 163 49 l64 18 -42 33 -41 34 -97 -16 c-251 -40
-432 -47 -555 -21 -86 18 -179 68 -223 119 -19 22 -34 34 -34 28z"/>
<path d="M405 6800 c51 -54 162 -82 342 -88 151 -4 404 12 433 28 35 20 -31
22 -244 10 -263 -14 -382 -2 -496 51 l-65 30 30 -31z"/>
<path d="M4454 6758 c1 -90 -20 -136 -107 -240 -83 -98 -97 -117 -77 -102 155
113 227 179 243 227 5 17 78 -35 149 -105 87 -85 47 -25 -48 73 -81 84 -123
150 -124 197 0 14 -6 22 -18 22 -16 0 -18 -9 -18 -72z"/>
<path d="M8627 6809 c-109 -57 -267 -72 -588 -55 -115 6 -168 5 -173 -2 -8
-13 22 -19 159 -32 304 -28 526 0 613 77 43 37 41 40 -11 12z"/>
<path d="M8693 6793 c-39 -50 -133 -100 -220 -118 -123 -26 -319 -17 -579 26
l-72 12 -42 -34 -42 -34 82 -22 c45 -12 119 -35 164 -50 76 -26 92 -28 251
-28 232 0 329 27 415 116 36 37 85 139 78 161 -2 5 -17 -8 -35 -29z"/>
<path d="M1370 6801 c37 -31 138 -77 211 -97 76 -21 331 -26 349 -8 7 7 9 28
5 56 l-7 45 -171 7 c-95 3 -226 9 -292 12 l-120 5 25 -20z"/>
<path d="M7400 6810 c-80 -4 -175 -8 -211 -9 l-67 -1 -7 -46 c-8 -58 -5 -60
94 -69 148 -13 329 27 442 97 27 16 49 32 49 34 0 5 -110 3 -300 -6z"/>
<path d="M4981 6759 c-28 -110 -63 -172 -143 -253 -71 -72 -89 -96 -72 -96 5
0 58 43 158 129 59 52 102 106 111 142 4 17 -2 41 -18 74 l-25 49 -11 -45z"/>
<path d="M1875 6649 c-44 -5 -120 -7 -170 -4 -112 7 -135 -4 -76 -35 24 -12
41 -24 38 -27 -7 -6 -144 -71 -697 -330 -369 -172 -490 -234 -360 -183 30 12
251 98 490 191 239 94 468 183 509 200 40 17 75 29 76 27 2 -2 -19 -32 -47
-68 -70 -91 -134 -227 -158 -339 -12 -52 -19 -95 -17 -97 2 -2 21 9 43 26 37
26 42 36 57 105 40 185 184 372 364 476 46 27 52 33 43 50 -6 10 -12 18 -13
18 -1 -1 -38 -6 -82 -10z"/>
<path d="M7081 6642 c-9 -17 -3 -24 54 -57 175 -103 321 -298 358 -480 11 -55
18 -68 51 -94 22 -17 41 -29 43 -27 9 9 -27 155 -57 230 -32 82 -80 163 -138
234 -19 23 -32 42 -29 42 5 0 209 -79 766 -296 189 -74 346 -133 348 -131 2 2
-198 98 -444 213 -246 115 -495 232 -553 260 l-105 51 43 22 c24 12 41 25 37
29 -4 4 -73 7 -153 8 -81 0 -161 4 -179 8 -26 6 -34 4 -42 -12z"/>
<path d="M5039 6594 c-21 -25 -16 -145 8 -186 24 -42 58 -49 74 -14 10 20 8
38 -10 94 -13 38 -30 81 -40 96 -16 24 -19 25 -32 10z"/>
<path d="M1235 6551 c-288 -100 -435 -172 -620 -302 -81 -57 -260 -218 -251
-226 5 -5 234 100 1101 506 l80 38 -65 11 c-36 7 -74 14 -85 17 -11 3 -83 -17
-160 -44z"/>
<path d="M5120 6540 c56 -123 48 -210 -18 -210 -57 0 -102 80 -103 182 0 53
-2 59 -10 38 -16 -37 -13 -133 4 -166 8 -16 40 -69 71 -119 31 -49 62 -109 68
-133 12 -50 19 -46 42 22 23 70 30 162 17 231 -11 60 -55 163 -85 200 -9 11
-3 -9 14 -45z"/>
<path d="M7605 6588 c-94 -18 -97 -23 -33 -51 31 -14 190 -89 355 -165 654
-306 755 -353 760 -349 7 8 -181 179 -257 232 -166 116 -345 204 -585 287
-156 55 -176 58 -240 46z"/>
<path d="M2378 6574 c25 -48 160 -178 237 -229 135 -90 308 -157 505 -195 115
-23 500 -80 535 -80 23 0 24 2 15 21 -7 11 -18 42 -26 69 -16 55 -10 53 -184
65 -189 13 -357 40 -543 86 -229 57 -384 132 -506 244 -27 24 -40 32 -33 19z"/>
<path d="M6611 6535 c-68 -55 -220 -134 -331 -173 -225 -78 -446 -112 -779
-121 l-245 -6 -11 -45 c-7 -25 -17 -55 -24 -68 -11 -21 -10 -22 27 -22 120 0
503 39 644 66 213 40 436 124 567 213 67 46 186 153 202 183 13 24 12 24 -50
-27z"/>
<path d="M3943 6542 c-23 -15 -43 -32 -43 -38 0 -17 109 -117 160 -146 47 -27
145 -60 153 -51 8 7 -9 58 -35 104 -15 28 -51 61 -106 100 -45 33 -83 59 -85
58 -1 0 -21 -13 -44 -27z"/>
<path d="M4514 6535 c-21 -51 -18 -106 9 -146 27 -42 98 -79 150 -79 l38 0 -7
38 c-16 86 -75 176 -135 208 -38 19 -38 19 -55 -21z"/>
<path d="M1924 6502 c-94 -62 -180 -161 -274 -317 -30 -49 -53 -66 379 282 6
4 -32 73 -40 73 -3 0 -32 -17 -65 -38z"/>
<path d="M2301 6523 l-43 -15 6 -50 c16 -117 68 -202 159 -256 l54 -33 42 17
c45 18 81 65 81 107 0 19 -11 32 -48 55 -27 16 -82 66 -123 111 -41 44 -76 81
-79 80 -3 0 -25 -8 -49 -16z"/>
<path d="M6626 6464 c-38 -42 -93 -92 -122 -111 -45 -30 -54 -41 -54 -65 0
-36 53 -95 97 -107 29 -9 40 -5 91 30 88 58 136 136 148 242 l6 54 -48 17
c-26 9 -48 16 -48 16 -1 0 -32 -34 -70 -76z"/>
<path d="M7039 6513 c-7 -16 -15 -31 -17 -34 -1 -4 79 -73 180 -155 101 -81
192 -154 202 -163 16 -13 14 -6 -8 32 -49 85 -115 175 -169 227 -51 51 -147
120 -165 120 -5 0 -15 -12 -23 -27z"/>
<path d="M717 6444 c-112 -76 -226 -179 -295 -267 -80 -102 -72 -98 40 18 113
118 216 198 341 265 42 23 77 44 77 46 0 2 -15 4 -33 4 -24 0 -59 -18 -130
-66z"/>
<path d="M4375 6436 c-76 -58 -124 -121 -107 -138 15 -15 83 14 135 56 48 39
52 46 57 94 3 29 3 52 0 51 -3 0 -41 -29 -85 -63z"/>
<path d="M3781 6440 c-36 -22 -77 -44 -93 -51 -23 -10 -28 -17 -28 -48 0 -61
49 -234 76 -270 7 -8 150 133 171 168 13 21 26 58 29 83 6 40 3 48 -23 79 -17
19 -35 44 -42 57 -6 12 -15 22 -19 22 -4 -1 -36 -18 -71 -40z m78 -74 c17 -18
22 -32 17 -50 -8 -34 -99 -131 -114 -122 -19 11 -33 81 -23 109 9 22 77 87 92
87 3 0 16 -11 28 -24z"/>
<path d="M1894 6319 c-181 -142 -235 -188 -184 -158 156 94 398 245 409 255
12 11 12 16 1 28 -7 9 -20 16 -30 16 -9 0 -98 -63 -196 -141z"/>
<path d="M6930 6445 c-8 -10 -9 -19 -4 -25 7 -6 216 -137 423 -264 9 -6 12 -5
8 1 -15 25 -379 303 -396 303 -10 0 -24 -7 -31 -15z"/>
<path d="M1350 6310 c-107 -42 -336 -133 -508 -201 -237 -93 -308 -125 -296
-132 9 -5 72 -7 143 -4 144 6 247 30 521 123 263 89 248 82 261 123 6 20 27
64 46 99 19 35 33 65 31 67 -1 2 -91 -32 -198 -75z"/>
<path d="M4444 6347 c-49 -52 -127 -81 -214 -80 -41 1 -88 6 -104 12 -49 19
-42 3 8 -20 59 -26 174 -35 245 -20 44 9 144 51 160 66 1 2 -13 19 -32 38
l-34 35 -29 -31z"/>
<path d="M4905 6344 c-55 -49 -127 -68 -234 -62 -83 5 -85 5 -51 -10 19 -8 76
-17 127 -20 92 -5 145 3 216 33 l37 15 -21 40 c-12 22 -24 40 -28 40 -3 -1
-24 -17 -46 -36z"/>
<path d="M7541 6324 c17 -31 40 -77 49 -102 l17 -45 154 -53 c346 -120 573
-172 694 -159 32 4 63 9 68 12 6 3 -132 62 -304 130 -173 68 -399 157 -502
198 -104 41 -193 75 -199 75 -5 0 5 -25 23 -56z"/>
<path d="M1880 6214 c-124 -80 -254 -164 -290 -186 -77 -49 -70 -56 60 -57
147 -1 315 54 427 140 28 22 59 52 68 66 15 23 16 29 1 67 -8 22 -18 58 -22
79 -3 20 -9 37 -13 36 -3 0 -107 -66 -231 -145z"/>
<path d="M3980 6318 c0 -57 -34 -110 -134 -208 -42 -41 -76 -83 -76 -94 0 -20
39 -90 47 -82 3 2 -1 14 -7 26 -14 26 -9 72 8 78 6 2 12 -2 12 -10 0 -7 9 -24
20 -38 l20 -25 0 46 c0 44 4 50 71 118 104 106 125 171 69 211 l-30 21 0 -43z"/>
<path d="M6915 6288 c-11 -40 -21 -78 -23 -84 -1 -5 13 -27 33 -47 110 -113
306 -188 488 -186 84 1 116 9 95 26 -20 16 -550 354 -562 359 -7 3 -20 -26
-31 -68z"/>
<path d="M2640 6263 c0 -18 -13 -39 -42 -66 -36 -34 -39 -39 -18 -33 65 20 64
20 83 -34 41 -115 143 -179 260 -165 30 4 59 10 64 13 9 6 33 116 33 149 0 6
-24 16 -52 23 -66 15 -230 84 -277 116 -45 30 -51 30 -51 -3z"/>
<path d="M6315 6244 c-75 -41 -212 -94 -245 -94 -37 -1 -42 -14 -29 -86 6 -38
15 -73 20 -78 4 -5 31 -12 60 -17 134 -21 224 42 279 194 10 27 10 27 39 12
48 -25 55 -17 17 19 -20 18 -39 47 -42 65 -4 17 -9 31 -13 30 -3 0 -42 -20
-86 -45z"/>
<path d="M4946 6218 c-28 -10 -78 -22 -113 -25 -35 -3 -66 -9 -68 -14 -17 -27
48 -69 109 -69 41 0 130 32 165 59 24 18 24 20 8 45 -20 30 -34 31 -101 4z"/>
<path d="M4497 6198 c-21 -11 -74 -26 -119 -32 -64 -9 -77 -14 -66 -24 48 -39
237 -40 326 -2 29 12 52 25 52 29 0 8 -91 40 -130 46 -14 3 -42 -5 -63 -17z"/>
<path d="M2157 6120 c-71 -71 -184 -125 -352 -169 -63 -16 94 -3 173 15 78 17
76 18 67 -3 -23 -58 -47 -183 -55 -278 -8 -107 -3 -245 9 -245 3 0 20 17 36
38 30 37 30 38 31 167 1 158 20 230 100 388 75 150 73 169 -9 87z"/>
<path d="M6830 6158 c0 -7 23 -58 50 -113 85 -168 103 -238 104 -392 1 -130 1
-132 31 -172 17 -22 33 -41 36 -41 13 0 19 159 10 260 -10 100 -26 180 -51
244 -6 16 -9 30 -7 32 2 2 35 -3 73 -10 38 -8 101 -17 139 -20 l70 -6 -90 26
c-128 35 -240 92 -302 153 -54 53 -63 59 -63 39z"/>
<path d="M4701 6139 c-44 -36 -124 -51 -243 -47 -97 3 -107 2 -79 -9 48 -20
178 -35 235 -28 69 8 156 27 160 34 2 3 -8 20 -23 38 l-26 31 -24 -19z"/>
<path d="M2566 6143 c-30 -3 -56 -12 -69 -24 -11 -10 -29 -19 -39 -19 -10 0
-18 -4 -18 -9 0 -4 30 -13 66 -19 37 -6 67 -12 68 -14 103 -158 203 -219 331
-204 79 9 85 13 85 56 l0 39 -32 -10 c-131 -37 -292 46 -315 164 -9 45 -9 45
-77 40z"/>
<path d="M6410 6105 c-15 -55 -69 -119 -124 -147 -43 -23 -158 -31 -203 -15
-21 8 -23 6 -23 -31 0 -40 0 -40 50 -51 69 -15 101 -14 157 5 61 21 123 71
171 139 32 47 43 55 85 64 26 6 56 11 67 11 10 0 22 5 25 10 3 6 -2 10 -13 10
-11 0 -30 8 -43 19 -14 10 -48 20 -80 24 l-57 5 -12 -43z"/>
<path d="M3046 6070 c-4 -35 -3 -67 3 -79 21 -38 104 -101 154 -116 53 -16
164 -20 184 -7 6 4 14 32 18 62 3 30 8 74 11 97 l5 41 -58 7 c-32 4 -114 18
-183 31 -69 13 -126 24 -126 24 -1 0 -4 -27 -8 -60z"/>
<path d="M5915 6114 c-33 -7 -109 -20 -169 -29 -61 -8 -111 -17 -112 -18 -5
-5 16 -190 21 -196 15 -15 138 -12 190 4 55 18 135 77 156 116 13 25 1 139
-15 138 -6 -1 -38 -7 -71 -15z"/>
<path d="M1380 6104 c-19 -9 -93 -38 -163 -65 -175 -67 -300 -97 -508 -124
-67 -8 -209 12 -287 41 l-68 25 -45 -19 -44 -19 35 -22 c75 -46 239 -81 384
-81 84 0 262 22 356 44 88 21 228 69 309 106 66 31 67 32 77 81 12 55 9 57
-46 33z"/>
<path d="M7623 6071 l9 -49 77 -35 c331 -151 764 -188 1001 -86 74 32 78 43
25 64 -45 17 -47 16 -94 -4 -75 -32 -137 -42 -251 -42 -178 1 -380 49 -638
152 -67 27 -126 49 -131 49 -4 0 -4 -22 2 -49z"/>
<path d="M2177 5957 c-58 -137 -86 -250 -73 -301 l7 -29 21 34 c175 285 226
374 215 378 -6 2 -34 14 -60 27 -27 13 -50 24 -51 24 -1 0 -28 -60 -59 -133z"/>
<path d="M6753 6062 c-29 -14 -53 -30 -53 -34 0 -16 232 -388 242 -388 19 0 2
140 -25 211 -35 92 -101 239 -107 238 -3 0 -29 -12 -57 -27z"/>
<path d="M5094 6046 c-11 -12 -40 -38 -65 -58 l-44 -37 52 -51 c28 -27 58 -50
66 -50 10 0 16 16 21 53 8 71 8 155 -1 160 -5 2 -17 -6 -29 -17z"/>
<path d="M5180 5952 c-7 -62 -9 -116 -5 -120 4 -4 44 -6 89 -6 134 3 264 45
321 104 24 25 25 32 19 78 l-6 51 -203 3 -202 3 -13 -113z"/>
<path d="M3448 6009 c-4 -52 -3 -56 35 -96 63 -66 221 -133 314 -133 47 0 43
22 -22 120 -33 50 -55 94 -55 110 0 27 -1 27 -77 34 -43 3 -103 9 -134 12
l-57 6 -4 -53z"/>
<path d="M2300 5855 c-70 -104 -132 -201 -139 -215 l-12 -25 23 27 c13 14 93
105 178 202 85 97 156 181 158 185 2 5 -16 11 -39 13 l-42 4 -127 -191z"/>
<path d="M4271 6033 c-45 -19 -155 -27 -208 -15 -24 5 -43 6 -43 2 0 -12 112
-67 174 -85 80 -23 168 -16 241 20 30 14 53 30 50 34 -2 5 -22 11 -42 14 -21
4 -56 16 -78 27 -45 23 -49 23 -94 3z"/>
<path d="M6573 6043 c-18 -2 -33 -7 -33 -10 0 -7 338 -390 351 -399 10 -6 -28
53 -193 301 -40 60 -77 110 -83 110 -5 1 -25 0 -42 -2z"/>
<path d="M4735 6014 c-27 -6 -83 -13 -122 -13 -79 -1 -91 -12 -52 -47 18 -16
36 -19 113 -18 75 0 107 6 184 32 155 53 157 57 34 58 -59 0 -129 -5 -157 -12z"/>
<path d="M1299 5922 c-52 -27 -161 -89 -244 -137 -320 -188 -489 -252 -637
-242 l-78 5 24 -19 c54 -43 139 -72 217 -77 165 -10 305 49 654 275 77 49 161
102 187 117 42 24 88 72 88 90 0 4 -10 4 -23 1 -15 -4 -32 1 -49 14 -14 12
-30 21 -35 21 -6 0 -52 -22 -104 -48z"/>
<path d="M2293 5708 c-122 -145 -219 -264 -218 -266 5 -5 207 112 290 168 95
64 192 160 223 220 l24 45 -46 48 c-25 26 -47 47 -49 47 -3 0 -103 -118 -224
-262z"/>
<path d="M6482 5922 c-50 -54 -49 -59 19 -145 50 -62 109 -116 184 -167 53
-36 287 -171 291 -168 4 5 -437 528 -444 527 -4 0 -26 -21 -50 -47z"/>
<path d="M7618 5953 c-9 -9 -31 -16 -47 -15 -31 1 -31 1 -16 -28 8 -16 42 -45
77 -66 35 -20 131 -81 213 -134 179 -115 334 -199 430 -231 105 -36 248 -34
328 3 32 15 68 35 81 45 22 18 20 18 -78 18 -158 1 -284 50 -593 232 -172 100
-347 193 -366 193 -7 0 -20 -7 -29 -17z"/>
<path d="M4469 5942 c-48 -36 -91 -47 -189 -46 -70 1 -111 7 -155 22 -58 21
-59 21 -37 2 65 -55 251 -76 376 -44 88 23 91 25 58 57 -28 27 -29 27 -53 9z"/>
<path d="M3030 5911 c0 -32 6 -44 39 -74 43 -39 91 -67 115 -67 48 0 66 -112
26 -163 -18 -23 -22 -49 -30 -219 -5 -106 -12 -226 -15 -267 -3 -41 -3 -72 0
-69 3 3 21 95 40 204 19 109 45 264 59 344 15 79 26 147 26 151 0 3 25 11 56
18 51 12 55 15 52 39 -2 21 -8 26 -23 24 -117 -19 -223 10 -291 79 -21 21 -42
39 -46 39 -4 0 -8 -17 -8 -39z"/>
<path d="M5970 5913 c-65 -65 -163 -97 -257 -83 -57 9 -63 7 -63 -25 0 -21 7
-25 55 -35 30 -6 55 -13 55 -16 0 -6 109 -633 116 -667 3 -16 7 -27 9 -25 2 2
-2 119 -9 260 -12 236 -15 258 -35 283 -40 52 -24 165 25 165 24 0 72 28 115
67 33 30 39 42 39 74 0 22 -3 39 -7 38 -5 0 -24 -16 -43 -36z"/>
<path d="M1430 5754 c-284 -433 -433 -747 -491 -1031 -22 -110 -36 -361 -23
-411 l9 -33 30 54 c27 52 33 56 109 87 245 100 452 293 720 673 26 37 46 67
43 67 -2 0 -63 -74 -135 -164 -165 -206 -282 -329 -391 -412 -85 -63 -221
-138 -273 -150 -26 -6 -28 -4 -28 27 0 54 19 206 36 289 60 293 228 627 518
1034 54 75 97 138 95 140 -2 2 -25 6 -51 9 l-46 6 -122 -185z"/>
<path d="M7433 5933 c-18 -2 -33 -7 -33 -10 0 -3 33 -51 73 -107 221 -303 370
-558 455 -779 67 -170 122 -427 122 -565 0 -43 -1 -44 -27 -37 -51 12 -188 86
-259 138 -105 77 -255 234 -394 411 -159 202 -187 233 -114 126 110 -162 219
-296 334 -411 146 -147 271 -232 422 -289 47 -17 57 -26 83 -75 38 -71 43 -59
44 102 2 363 -137 726 -486 1268 -139 216 -153 235 -171 233 -9 0 -32 -3 -49
-5z"/>
<path d="M1940 5913 c-20 -4 -44 -35 -116 -151 -50 -81 -203 -325 -339 -542
-300 -478 -281 -447 -268 -435 6 6 152 215 323 465 172 250 346 503 386 563
77 110 77 110 14 100z"/>
<path d="M7062 5910 c5 -15 771 -1130 780 -1136 4 -3 -142 233 -324 523 -182
290 -342 547 -357 570 -14 23 -34 44 -46 47 -32 9 -57 7 -53 -4z"/>
<path d="M4963 5884 c-6 -3 -19 -28 -28 -55 -12 -34 -26 -56 -45 -68 -31 -18
-29 -32 14 -80 23 -26 115 -73 128 -65 4 3 10 27 14 55 4 27 9 51 13 53 3 3
31 -2 61 -10 100 -26 241 -15 367 28 86 30 115 55 111 95 l-3 32 -44 -29 c-61
-41 -130 -61 -237 -67 -128 -8 -237 27 -298 96 -19 21 -30 24 -53 15z"/>
<path d="M1609 5732 c-212 -293 -314 -459 -397 -647 -39 -87 -122 -323 -122
-343 0 -8 42 56 425 648 158 245 294 455 303 468 14 22 14 22 -44 22 l-59 0
-106 -148z"/>
<path d="M3444 5848 c9 -45 60 -94 125 -120 74 -29 230 -32 276 -6 l30 17 -55
1 c-121 1 -262 47 -332 109 -45 39 -52 39 -44 -1z"/>
<path d="M7253 5828 c19 -29 164 -253 322 -498 158 -245 308 -476 332 -514 24
-37 46 -66 48 -64 11 11 -93 295 -150 409 -90 179 -161 291 -349 552 l-121
167 -58 0 -58 0 34 -52z"/>
<path d="M2624 5803 c-22 -36 -72 -102 -113 -145 -40 -43 -69 -78 -65 -78 5 0
38 18 74 39 l65 39 7 -85 c10 -112 40 -236 78 -320 31 -68 109 -193 121 -193
4 0 11 19 17 42 11 41 9 46 -33 118 -58 99 -91 172 -110 245 -21 81 -19 231 4
320 11 39 17 73 14 78 -10 16 -22 4 -59 -60z"/>
<path d="M6366 5861 c-3 -4 4 -39 15 -77 25 -85 27 -231 4 -319 -16 -60 -70
-180 -121 -265 -23 -40 -26 -52 -20 -93 4 -26 10 -47 14 -47 10 0 85 114 112
170 50 100 90 272 90 388 0 40 11 54 25 32 4 -6 39 -27 78 -46 l71 -36 -58 53
c-61 56 -113 122 -159 202 -27 46 -40 56 -51 38z"/>
<path d="M4116 5846 c9 -21 94 -78 156 -105 56 -23 76 -26 183 -26 115 0 123
1 192 34 39 18 81 43 93 56 l21 22 -94 6 c-79 5 -103 3 -157 -15 -49 -16 -91
-22 -170 -22 -99 -1 -109 1 -167 30 -34 18 -59 27 -57 20z"/>
<path d="M2903 5813 c-18 -2 -33 -7 -33 -11 0 -4 -7 -99 -15 -212 -8 -113 -14
-218 -14 -235 0 -26 1 -27 9 -10 9 24 110 448 110 464 0 6 -6 10 -12 9 -7 0
-28 -3 -45 -5z"/>
<path d="M6090 5813 c-1 -29 116 -493 118 -470 3 24 -26 459 -31 463 -9 7 -87
14 -87 7z"/>
<path d="M4742 5771 c-89 -81 -203 -111 -347 -92 -46 7 -103 18 -126 26 -55
20 -62 18 -19 -5 122 -64 305 -66 510 -6 78 23 87 30 67 51 -9 9 -20 27 -23
41 -3 13 -9 24 -13 24 -3 -1 -25 -18 -49 -39z"/>
<path d="M2693 5753 c-13 -63 -8 -204 11 -272 18 -67 76 -204 83 -197 7 7 44
478 38 484 -3 3 -13 7 -23 8 -9 2 -36 5 -59 9 l-42 6 -8 -38z"/>
<path d="M6275 5783 c-22 -3 -43 -7 -47 -11 -7 -8 27 -471 36 -479 9 -9 64
116 82 187 18 70 24 211 11 273 -6 26 -13 37 -25 35 -9 -1 -35 -3 -57 -5z"/>
<path d="M2930 5497 c-34 -144 -65 -269 -67 -277 -7 -25 56 51 93 112 19 31
54 117 78 190 65 201 64 183 8 212 l-49 25 -63 -262z"/>
<path d="M6003 5734 l-41 -25 25 -92 c45 -166 89 -267 151 -349 42 -56 54 -60
42 -15 -5 17 -34 139 -66 270 -31 130 -59 237 -63 236 -3 -1 -25 -12 -48 -25z"/>
<path d="M3440 5716 c0 -29 65 -91 124 -117 52 -23 138 -36 191 -29 40 5 40 5
43 51 l3 46 -70 -5 c-81 -5 -141 7 -224 49 -32 16 -61 29 -63 29 -2 0 -4 -11
-4 -24z"/>
<path d="M5565 5725 c-59 -41 -324 -78 -413 -57 -48 11 -53 7 -56 -50 -1 -32
0 -33 54 -41 69 -12 222 5 311 33 85 27 143 68 147 103 4 30 -11 34 -43 12z"/>
<path d="M1259 5666 c-251 -174 -465 -266 -618 -266 -47 0 -158 22 -220 45
-24 8 -46 14 -48 12 -2 -3 11 -15 29 -29 96 -73 208 -99 343 -80 101 15 256
67 376 127 86 44 89 46 153 141 37 53 65 98 64 99 -2 2 -37 -20 -79 -49z"/>
<path d="M7715 5709 c5 -8 35 -53 67 -102 55 -82 63 -89 136 -126 258 -129
474 -167 625 -111 50 19 142 78 134 86 -2 2 -28 -4 -58 -15 -124 -42 -235 -48
-359 -19 -97 23 -313 135 -465 242 -81 57 -90 62 -80 45z"/>
<path d="M3365 5675 l-49 -10 -67 -395 c-37 -217 -65 -397 -64 -399 9 -8 69
45 108 97 95 123 129 220 172 492 l23 145 -37 40 -37 41 -49 -11z"/>
<path d="M5601 5646 l-40 -41 29 -170 c47 -278 93 -392 209 -510 58 -59 76
-68 68 -32 -3 12 -34 189 -68 392 -34 204 -64 373 -68 377 -3 4 -25 11 -48 16
-40 9 -42 8 -82 -32z"/>
<path d="M4180 5624 c0 -49 4 -59 30 -86 30 -30 32 -30 113 -26 101 6 177 38
177 75 0 21 -4 23 -52 23 -82 0 -163 17 -218 44 l-50 25 0 -55z"/>
<path d="M4745 5655 c-33 -13 -95 -29 -138 -36 -75 -12 -78 -14 -75 -38 5 -42
59 -71 135 -71 35 0 79 7 98 14 32 14 35 18 35 59 0 24 7 52 15 63 31 41 18
42 -70 9z"/>
<path d="M4841 5656 c-26 -27 -27 -68 -2 -121 27 -60 42 -69 85 -51 60 25 61
97 3 149 -54 47 -62 49 -86 23z"/>
<path d="M1614 5233 c-164 -236 -332 -477 -375 -538 -43 -60 -73 -111 -68
-113 15 -6 116 67 194 140 88 82 205 214 406 458 l144 175 0 152 c0 84 -1 153
-2 153 -1 0 -135 -192 -299 -427z"/>
<path d="M7137 5508 l-7 -142 32 -41 c134 -169 391 -468 478 -556 93 -93 215
-189 242 -189 5 0 -21 44 -58 98 -324 466 -668 958 -674 965 -4 4 -10 -56 -13
-135z"/>
<path d="M2510 5564 c-19 -8 -35 -16 -36 -17 -3 -2 -61 -387 -133 -877 -72
-489 -74 -500 -67 -507 3 -4 6 1 6 11 0 9 20 112 45 229 24 117 74 354 110
527 36 173 79 377 95 453 30 138 37 197 23 197 -5 -1 -24 -8 -43 -16z"/>
<path d="M6490 5555 c0 -21 69 -360 150 -740 10 -49 44 -211 75 -360 51 -246
65 -302 65 -266 0 8 -13 102 -30 210 -16 108 -59 396 -95 641 -35 245 -67 460
-70 478 -5 25 -14 35 -42 47 -48 20 -53 19 -53 -10z"/>
<path d="M2240 5479 c-24 -11 -46 -21 -47 -23 -6 -6 -55 -257 -74 -376 -70
-445 -75 -802 -18 -1150 23 -142 68 -315 79 -303 4 4 13 43 19 85 12 75 11 80
-23 205 -51 184 -60 260 -60 503 1 234 16 388 65 680 50 295 60 340 86 371 14
16 23 29 21 28 -1 0 -23 -9 -48 -20z"/>
<path d="M6779 5480 c20 -18 29 -45 52 -163 132 -665 140 -1100 29 -1457 -18
-58 -19 -73 -9 -140 7 -41 15 -81 19 -89 14 -27 80 258 102 445 16 139 16 539
-1 709 -20 207 -99 658 -117 674 -5 4 -29 15 -54 25 l-45 16 24 -20z"/>
<path d="M6644 5458 c3 -18 10 -60 16 -93 5 -33 23 -152 39 -265 17 -113 58
-384 91 -603 33 -220 61 -404 61 -410 6 -43 17 138 18 284 2 317 -37 660 -110
978 l-21 92 -50 25 -49 25 5 -33z"/>
<path d="M2348 5460 c-41 -22 -35 -4 -88 -270 -59 -296 -89 -672 -76 -953 5
-87 10 -156 12 -154 2 2 13 64 23 138 11 74 48 314 81 534 33 220 70 463 81
540 11 77 22 150 24 163 7 27 -7 28 -57 2z"/>
<path d="M3120 5438 c-17 -58 -55 -133 -96 -189 l-34 -46 20 -58 c22 -64 60
-135 84 -154 12 -10 15 -2 20 61 12 146 27 420 23 424 -2 2 -10 -15 -17 -38z"/>
<path d="M5911 5460 c-1 -49 29 -473 33 -477 7 -8 55 62 79 117 41 91 41 102
3 151 -39 52 -60 91 -92 173 -15 41 -23 53 -23 36z"/>
<path d="M4975 5449 c-46 -21 -78 -24 -106 -8 -17 9 -22 5 -39 -34 -42 -96
-84 -325 -115 -637 -39 -382 -99 -611 -191 -718 -35 -42 -36 -44 -29 -103 l7
-61 50 48 c107 105 211 300 257 479 30 119 47 232 80 520 33 280 52 373 100
469 16 33 29 61 28 62 -1 1 -20 -7 -42 -17z"/>
<path d="M3810 5435 c-64 -20 -126 -77 -161 -147 -17 -33 -29 -62 -27 -64 2
-1 19 18 38 44 72 97 198 128 308 77 61 -28 73 -49 95 -168 l15 -77 -37 -62
c-35 -61 -144 -181 -206 -227 -24 -18 -19 -17 25 6 58 30 169 133 237 220 l41
52 -19 88 c-29 140 -46 194 -66 209 -63 51 -170 73 -243 49z"/>
<path d="M4515 5439 c-39 -13 -188 -16 -239 -6 -36 8 -39 7 -26 -8 42 -51 153
-78 267 -65 79 9 213 47 213 60 0 4 -24 10 -52 13 -29 4 -71 9 -93 11 -22 3
-53 1 -70 -5z"/>
<path d="M5119 5436 c-25 -6 -61 -23 -80 -36 -19 -13 -35 -24 -37 -25 -5 -4
-50 -170 -62 -227 l-11 -58 44 -57 c56 -72 159 -171 214 -206 67 -42 71 -31 7
16 -65 48 -118 108 -171 195 -32 52 -34 62 -28 112 10 92 33 158 63 178 48 32
82 42 145 42 81 -1 131 -24 190 -90 26 -28 47 -49 47 -45 0 4 -14 34 -32 67
-38 72 -86 113 -152 133 -58 18 -76 18 -137 1z"/>
<path d="M4175 5413 c-10 -16 -28 -39 -41 -53 l-23 -25 28 -115 c54 -224 51
-218 46 -80 -3 69 -8 146 -11 173 -5 37 -4 47 8 47 8 0 23 6 33 14 17 12 18
18 7 40 -15 33 -25 33 -47 -1z"/>
<path d="M2065 5401 l-60 -18 -78 -179 c-255 -590 -450 -907 -665 -1078 -34
-27 -62 -53 -62 -58 0 -4 17 -8 38 -8 225 0 476 292 748 872 62 133 84 192
115 318 21 85 39 158 39 163 0 9 -1 9 -75 -12z"/>
<path d="M6910 5415 c0 -4 9 -42 20 -84 11 -42 29 -114 40 -161 24 -99 208
-482 311 -645 195 -311 371 -465 529 -465 52 0 55 9 11 40 -53 39 -161 149
-227 232 -133 166 -303 480 -465 860 l-84 196 -45 10 c-25 6 -55 13 -67 17
-13 4 -23 4 -23 0z"/>
<path d="M3627 5363 c-77 -75 -101 -132 -151 -358 -40 -183 -88 -280 -204
-412 l-63 -73 31 0 c83 0 249 87 324 170 41 45 41 48 21 116 -22 76 -37 222
-29 294 10 94 38 177 84 248 22 34 39 62 37 62 -1 0 -24 -21 -50 -47z"/>
<path d="M5403 5380 c34 -40 72 -122 92 -200 22 -85 16 -242 -15 -360 l-23
-85 70 -65 c40 -37 99 -79 136 -98 63 -31 173 -60 184 -48 3 3 -19 33 -50 66
-106 114 -163 217 -196 355 -10 44 -28 120 -40 169 -27 117 -60 185 -117 246
-50 54 -82 70 -41 20z"/>
<path d="M4710 5381 c-32 -24 -81 -39 -172 -54 l-73 -13 63 -22 c34 -13 67
-32 72 -42 6 -12 10 -75 8 -152 -1 -98 3 -155 16 -218 15 -67 17 -110 13 -200
-3 -63 -4 -110 -2 -105 2 6 16 100 30 210 34 266 61 426 85 507 17 56 18 71 8
88 -15 24 -16 24 -48 1z"/>
<path d="M4245 5369 c-5 -5 -18 -15 -28 -22 -17 -12 -16 -16 12 -77 19 -41 36
-101 46 -165 9 -55 20 -118 24 -140 8 -40 9 -40 10 -7 0 19 7 35 16 38 23 9
19 95 -10 199 -28 101 -31 131 -12 138 8 3 3 11 -13 25 -28 24 -31 25 -45 11z"/>
<path d="M2570 5344 c0 -6 -61 -307 -135 -670 -74 -362 -134 -663 -132 -668 4
-13 43 56 73 128 48 117 92 293 169 670 l78 380 -18 70 c-17 69 -34 112 -35
90z"/>
<path d="M6455 5293 c-9 -32 -19 -71 -22 -88 -5 -36 132 -707 181 -886 33
-121 124 -336 132 -313 4 10 -263 1334 -270 1342 -2 2 -12 -23 -21 -55z"/>
<path d="M5109 5279 c-21 -8 -28 -18 -32 -47 -12 -96 92 -223 222 -273 l49
-18 6 22 c10 38 7 102 -8 151 -23 77 -61 124 -119 152 -56 26 -77 28 -118 13z"/>
<path d="M3829 5260 c-41 -21 -86 -71 -101 -109 -18 -48 -29 -133 -23 -172 6
-35 10 -39 28 -33 144 44 269 185 252 284 -5 28 -12 40 -28 44 -41 11 -92 5
-128 -14z"/>
<path d="M4370 5255 c0 -2 9 -37 20 -77 28 -106 40 -242 40 -460 0 -186 13
-318 40 -418 l12 -45 18 36 c35 67 59 186 84 414 2 17 -7 63 -21 103 -27 84
-44 243 -36 342 l6 66 -54 16 c-72 22 -109 29 -109 23z"/>
<path d="M3677 5213 c-41 -65 -57 -130 -57 -222 1 -108 25 -188 55 -183 39 6
130 53 182 94 47 36 143 148 143 167 0 3 -28 -21 -63 -54 -76 -73 -148 -113
-207 -117 -40 -3 -46 0 -60 27 -10 21 -15 59 -15 125 0 84 3 102 27 148 31 61
29 69 -5 15z"/>
<path d="M5381 5194 c25 -48 29 -68 28 -133 0 -42 -6 -94 -13 -116 -11 -37
-15 -40 -50 -43 -55 -5 -135 38 -219 117 -58 55 -67 61 -53 34 35 -69 135
-161 218 -203 44 -22 88 -40 98 -40 30 0 55 89 54 195 0 77 -4 99 -28 152 -16
34 -36 69 -46 78 -12 11 -8 -2 11 -41z"/>
<path d="M4217 5137 c3 -45 1 -107 -5 -137 -8 -42 -7 -71 3 -121 8 -35 19
-121 25 -189 11 -132 20 -167 20 -80 0 69 8 60 25 -31 l14 -74 -5 85 c-15 237
-60 616 -74 625 -4 3 -6 -32 -3 -78z"/>
<path d="M2910 5105 c-29 -29 -68 -61 -86 -71 -32 -17 -34 -17 -53 1 l-21 18
0 -104 c0 -211 -28 -421 -80 -609 -17 -58 -30 -109 -30 -113 0 -14 55 21 86
55 59 64 89 132 123 278 23 96 51 326 51 413 0 31 3 57 8 57 4 0 18 -21 32
-46 26 -51 120 -149 168 -176 l30 -18 7 57 c6 53 5 59 -16 73 -44 28 -91 85
-120 145 -16 33 -29 65 -29 72 0 28 -20 19 -70 -32z"/>
<path d="M6078 5153 c-3 -4 -11 -26 -18 -48 -22 -69 -82 -149 -139 -185 -21
-14 -22 -20 -16 -73 l7 -57 30 18 c51 29 137 121 171 180 l32 57 3 -45 c8
-148 37 -377 58 -459 31 -126 83 -230 136 -275 39 -34 68 -46 68 -28 0 4 -12
43 -25 87 -48 152 -85 425 -85 624 l0 104 -20 -18 c-20 -18 -22 -18 -53 -1
-18 10 -57 43 -88 73 -31 30 -59 51 -61 46z"/>
<path d="M2667 5118 c-28 -167 -112 -599 -127 -661 -59 -228 -128 -392 -232
-548 -35 -52 -66 -105 -70 -118 -7 -23 -7 -23 14 -5 32 29 129 180 175 274 69
139 141 367 188 592 35 162 84 468 79 483 -10 25 -21 17 -27 -17z"/>
<path d="M6356 5135 c-5 -15 42 -295 84 -500 45 -219 114 -434 186 -579 46
-92 142 -243 169 -266 34 -28 13 21 -48 112 -144 215 -223 441 -292 828 -73
412 -82 448 -99 405z"/>
<path d="M4172 4835 c-2 -216 -36 -353 -117 -466 -21 -29 -34 -61 -37 -87 -2
-23 -3 -42 -2 -42 0 0 22 32 48 71 26 39 74 100 107 135 49 52 58 68 54 91 -2
15 -7 75 -10 133 -4 58 -15 150 -24 205 l-18 100 -1 -140z"/>
<path d="M4322 4867 c-19 -144 22 -467 74 -586 15 -34 28 -60 30 -59 1 2 -8
35 -21 75 -27 81 -45 222 -45 345 0 125 -12 308 -20 308 -4 0 -12 -37 -18 -83z"/>
<path d="M3976 4854 c-78 -76 -177 -128 -275 -146 -51 -10 -65 -16 -72 -36
-32 -84 -224 -199 -368 -220 -36 -6 -48 -13 -62 -40 l-19 -32 28 0 c37 0 180
51 236 84 25 14 73 49 108 77 35 28 100 68 145 89 142 66 256 152 321 244 18
25 32 46 30 46 -2 -1 -34 -30 -72 -66z"/>
<path d="M4916 4877 c-10 -65 12 -219 45 -321 32 -97 71 -171 118 -226 29 -32
28 -29 -13 50 -25 47 -54 119 -65 160 -22 78 -28 170 -11 170 5 0 37 -20 72
-44 96 -66 228 -137 228 -122 0 2 -30 23 -67 47 -88 57 -189 159 -251 254
l-50 76 -6 -44z"/>
<path d="M2926 4818 c-21 -291 -87 -484 -191 -564 -45 -34 -39 -41 17 -16 114
51 202 223 254 500 l15 83 -36 45 c-20 24 -40 44 -44 44 -5 0 -11 -42 -15 -92z"/>
<path d="M4027 4835 c-86 -111 -184 -183 -324 -236 -56 -21 -63 -27 -63 -51 0
-32 0 -32 37 -16 115 49 251 154 333 256 43 55 86 122 78 122 -2 0 -29 -34
-61 -75z"/>
<path d="M4095 4849 c-50 -81 -154 -190 -235 -247 -86 -60 -93 -67 -45 -47 53
22 117 59 192 111 34 24 64 44 67 44 3 0 6 -27 6 -59 0 -89 -51 -237 -112
-323 -23 -34 -14 -37 13 -5 92 107 169 341 169 512 0 81 -12 84 -55 14z"/>
<path d="M4992 4871 c33 -63 168 -203 246 -255 62 -40 164 -96 177 -96 3 0 5
13 5 29 0 27 -5 31 -69 56 -149 57 -232 122 -359 281 l-23 29 23 -44z"/>
<path d="M5046 4874 c63 -83 166 -163 288 -225 67 -34 153 -85 191 -115 39
-30 100 -70 136 -88 62 -31 205 -74 215 -64 9 10 -28 68 -45 68 -36 0 -139 32
-208 65 -67 31 -137 90 -200 168 -14 18 -31 27 -50 27 -74 0 -206 67 -293 150
-30 27 -56 50 -58 50 -1 0 9 -16 24 -36z"/>
<path d="M6065 4865 l-37 -46 22 -102 c63 -302 150 -453 280 -492 20 -6 13 4
-30 46 -30 30 -67 79 -82 109 -44 93 -80 261 -94 443 -4 48 -10 87 -14 87 -4
0 -24 -20 -45 -45z"/>
<path d="M1981 4772 c-196 -397 -418 -660 -612 -729 -69 -25 -61 -37 19 -30
184 17 380 196 576 527 52 88 53 91 66 210 7 67 10 123 8 125 -2 2 -28 -44
-57 -103z"/>
<path d="M7010 4854 c0 -16 7 -76 15 -132 14 -95 19 -111 67 -190 128 -213
287 -396 398 -459 86 -49 211 -79 234 -56 3 4 -18 17 -48 29 -197 80 -390 307
-586 689 -39 77 -74 142 -76 144 -2 2 -4 -9 -4 -25z"/>
<path d="M4887 4646 c-4 -27 -7 -83 -7 -125 l0 -77 46 -44 c26 -25 63 -70 83
-101 l37 -57 -2 42 c-2 29 -15 60 -47 107 -54 81 -74 131 -90 229 l-13 75 -7
-49z"/>
<path d="M4007 4570 c-71 -96 -205 -174 -322 -189 -49 -6 -50 -7 -53 -43 -3
-34 -1 -38 21 -38 47 0 155 40 215 80 73 49 123 103 157 170 36 71 27 81 -18
20z"/>
<path d="M5015 4599 c37 -119 183 -245 330 -283 84 -22 85 -22 85 24 0 37 -2
40 -28 40 -39 0 -127 27 -187 57 -29 15 -84 60 -129 106 -53 55 -76 73 -71 56z"/>
<path d="M3940 4584 c-85 -61 -221 -114 -293 -114 -21 0 -45 -14 -84 -50 -108
-98 -252 -168 -371 -178 -52 -4 -66 -9 -83 -30 -10 -14 -17 -27 -14 -30 2 -2
27 -4 55 -3 101 2 247 71 395 186 37 28 69 45 86 45 84 0 231 75 314 159 45
47 44 50 -5 15z"/>
<path d="M5100 4587 c74 -83 193 -151 292 -167 59 -9 77 -18 146 -70 148 -112
293 -174 387 -168 l47 3 -22 28 c-15 19 -31 27 -53 27 -119 1 -297 84 -417
196 -38 35 -52 42 -86 41 -70 0 -187 48 -294 120 l-25 17 25 -27z"/>
<path d="M5444 4545 c9 -36 42 -72 121 -132 119 -91 281 -150 373 -136 l34 6
-38 38 c-30 31 -45 39 -74 39 -103 0 -240 68 -409 204 -12 9 -13 6 -7 -19z"/>
<path d="M3590 4545 c-25 -30 -189 -133 -247 -155 -32 -12 -85 -26 -117 -30
-46 -7 -66 -16 -92 -41 -18 -18 -31 -36 -28 -41 17 -27 168 3 272 56 111 56
242 171 242 213 0 18 -15 17 -30 -2z"/>
<path d="M4622 4412 c-33 -107 -93 -232 -130 -266 l-31 -28 -28 22 c-15 12
-38 38 -50 58 -13 20 -23 32 -23 26 0 -24 25 -82 57 -133 l34 -54 36 34 c46
45 116 192 143 302 28 113 22 139 -8 39z"/>
<path d="M4260 4336 c0 -35 -9 -116 -20 -180 -40 -238 -114 -445 -224 -630
-26 -43 -44 -81 -42 -84 10 -10 134 69 193 123 66 60 158 190 188 265 9 25 25
73 35 107 l18 62 -66 201 c-37 110 -70 200 -74 200 -5 0 -8 -29 -8 -64z"/>
<path d="M3525 4315 c-83 -65 -230 -139 -303 -154 -29 -6 -77 -11 -106 -11
-38 0 -58 -5 -67 -17 -8 -9 -31 -29 -52 -44 l-38 -28 38 -10 c54 -15 178 -13
242 4 112 30 233 108 319 205 34 39 43 56 40 79 l-3 30 -70 -54z"/>
<path d="M3910 4348 c-67 -54 -192 -98 -280 -98 -22 0 -40 -3 -40 -8 0 -4 -21
-31 -46 -60 -57 -65 -137 -120 -229 -158 -63 -26 -81 -28 -190 -29 -119 0
-121 0 -143 -27 l-22 -27 56 -7 c164 -20 330 45 500 197 56 50 67 55 133 66
91 14 202 67 255 122 43 44 46 62 6 29z"/>
<path d="M5138 4343 c46 -65 178 -131 297 -149 41 -6 61 -17 110 -59 137 -119
246 -177 370 -194 65 -10 185 -4 185 9 0 4 -9 15 -21 26 -18 16 -38 19 -128
20 -183 1 -283 44 -413 175 l-88 89 -54 0 c-62 0 -151 29 -211 70 -66 44 -70
45 -47 13z"/>
<path d="M5460 4338 c0 -28 12 -44 79 -108 143 -136 283 -196 436 -187 44 3
91 10 103 14 23 9 23 10 -18 38 -22 15 -44 35 -49 42 -5 10 -32 16 -87 18
-125 6 -248 58 -390 166 -36 27 -67 49 -70 49 -2 0 -4 -15 -4 -32z"/>
<path d="M2575 4278 c-82 -212 -187 -400 -296 -531 -27 -32 -49 -68 -49 -78 0
-29 12 -18 84 74 118 153 185 278 257 486 44 128 47 159 4 49z"/>
<path d="M4805 4283 c-21 -58 -85 -178 -133 -250 -29 -45 -33 -57 -27 -89 22
-118 105 -255 218 -360 70 -66 198 -146 211 -133 4 3 -16 49 -43 102 -85 168
-149 391 -185 656 -9 63 -18 116 -20 118 -2 2 -11 -18 -21 -44z"/>
<path d="M6450 4316 c0 -20 81 -228 117 -300 50 -101 152 -257 213 -326 62
-70 52 -18 -11 61 -111 137 -179 255 -264 457 -40 97 -55 125 -55 108z"/>
<path d="M5070 4265 c0 -10 15 -67 34 -129 54 -176 61 -214 60 -331 -1 -82 -6
-124 -21 -167 l-20 -57 30 17 c54 31 118 102 144 160 21 46 27 77 31 160 2 56
1 136 -3 177 l-7 75 -41 0 c-49 0 -109 27 -165 76 -32 27 -42 32 -42 19z"/>
<path d="M3944 4239 c-56 -45 -107 -68 -156 -73 l-43 -4 -8 -73 c-13 -113 -2
-270 22 -324 28 -63 65 -109 122 -150 27 -19 51 -35 53 -35 2 0 -5 27 -15 61
-39 124 -20 325 51 535 17 48 30 89 30 91 0 10 -22 -1 -56 -28z"/>
<path d="M3677 4091 c-19 -32 -45 -44 -87 -39 -23 3 -26 -3 -48 -82 -15 -52
-24 -116 -25 -165 -2 -70 2 -88 27 -138 29 -60 110 -148 164 -180 l30 -17 -20
38 c-36 65 -10 106 76 114 l29 3 -38 45 c-67 80 -78 116 -84 293 l-6 158 -18
-30z"/>
<path d="M5360 3979 c0 -163 -13 -215 -74 -296 l-44 -58 46 -7 c72 -11 91 -52
52 -116 l-21 -33 32 18 c56 32 141 124 168 182 34 74 34 188 0 306 l-24 80
-34 -3 c-27 -3 -40 3 -67 29 l-34 33 0 -135z"/>
<path d="M5510 4105 c0 -22 47 -89 90 -128 125 -113 316 -155 474 -107 36 11
68 25 71 30 11 18 -27 27 -64 14 -49 -18 -142 -17 -221 2 -89 20 -234 93 -297
149 -29 26 -53 44 -53 40z"/>
<path d="M3490 4054 c-67 -55 -192 -117 -280 -139 -60 -16 -142 -17 -259 -3
-41 5 -34 -19 11 -37 28 -12 78 -20 146 -23 88 -4 113 -1 174 19 114 36 213
112 257 197 7 13 11 25 9 27 -2 2 -28 -17 -58 -41z"/>
<path d="M3479 3937 c-51 -45 -133 -84 -224 -107 -124 -32 -229 -23 -328 26
-45 23 -48 24 -72 8 -33 -21 -21 -37 49 -63 228 -85 497 -21 601 142 22 34 18
34 -26 -6z"/>
<path d="M5559 3942 c18 -33 85 -93 132 -117 136 -70 346 -74 486 -10 59 26
64 36 30 54 -19 10 -31 8 -78 -13 -150 -69 -362 -44 -516 60 -40 28 -60 38
-54 26z"/>
<path d="M4437 3909 c-4 -20 -25 -72 -47 -117 l-39 -81 10 -93 c12 -119 16
-140 46 -273 23 -99 59 -204 66 -194 5 7 -13 587 -21 694 -6 81 -9 93 -15 64z"/>
<path d="M4532 3862 l-33 -36 7 -275 c4 -152 10 -282 13 -288 4 -7 17 132 29
309 12 176 21 322 20 323 -2 1 -18 -14 -36 -33z"/>
<path d="M5580 3791 c0 -46 -7 -93 -21 -133 -16 -49 -18 -63 -7 -70 39 -28
110 -51 167 -56 l66 -5 -32 33 c-39 40 -97 149 -113 212 -7 25 -23 57 -36 69
l-24 22 0 -72z"/>
<path d="M3453 3835 c-13 -9 -23 -25 -23 -36 0 -35 -58 -162 -99 -216 -39 -50
-39 -51 -17 -57 45 -11 206 46 206 74 0 4 -7 25 -16 46 -9 21 -19 75 -22 121
l-7 83 -22 -15z"/>
<path d="M4647 3720 c23 -269 -7 -485 -98 -688 l-30 -67 -20 25 c-11 14 -28
41 -39 60 -10 19 -19 31 -19 25 -1 -13 56 -112 69 -120 5 -3 10 -35 10 -71 0
-35 4 -64 9 -64 14 0 59 132 112 330 69 258 100 351 120 371 18 18 16 24 -52
156 l-71 138 9 -95z"/>
<path d="M3174 3722 c-6 -4 -21 -27 -33 -51 -29 -55 -97 -121 -150 -145 -60
-27 -52 -40 22 -34 115 10 173 58 203 171 8 28 14 55 14 60 0 9 -42 9 -56 -1z"/>
<path d="M5834 3713 c3 -10 10 -36 15 -59 27 -103 95 -154 206 -154 l70 0 -55
31 c-72 39 -113 80 -147 146 -25 48 -31 53 -61 53 -27 0 -32 -3 -28 -17z"/>
<path d="M4308 3655 c-3 -6 -21 -74 -38 -150 -34 -149 -66 -242 -106 -314 -13
-24 -23 -46 -20 -48 8 -8 73 78 99 131 15 30 32 79 39 108 6 29 15 57 20 63
16 18 8 -133 -11 -207 -35 -134 -91 -222 -181 -280 -53 -35 -17 -29 45 7 57
33 98 79 143 163 36 67 52 80 52 43 0 -9 -13 -43 -29 -76 -26 -56 -87 -123
-151 -167 -24 -17 -24 -17 16 -4 74 25 121 54 163 102 22 26 41 50 41 55 0 4
-9 45 -19 91 -24 103 -40 228 -49 378 -4 63 -10 110 -14 105z"/>
<path d="M3550 3551 c0 -14 88 -100 132 -127 55 -35 147 -64 205 -64 l44 0
-21 30 c-11 16 -34 58 -51 92 -26 54 -29 58 -25 28 3 -19 8 -50 12 -69 l7 -34
-39 7 c-62 12 -134 47 -201 98 -35 26 -63 44 -63 39z"/>
<path d="M5441 3509 c-68 -52 -153 -89 -203 -89 -27 0 -30 3 -24 23 4 12 9 40
12 62 5 36 1 32 -37 -45 -24 -47 -45 -88 -47 -92 -6 -13 59 -9 114 6 76 20
145 61 205 122 29 29 51 55 48 57 -2 2 -33 -18 -68 -44z"/>
<path d="M3496 3532 c-3 -5 -31 -16 -63 -26 -54 -17 -62 -23 -117 -98 -33 -44
-90 -118 -127 -165 -59 -74 -66 -87 -54 -100 13 -12 13 -19 0 -49 -8 -19 -12
-34 -10 -34 2 0 51 57 108 128 57 70 147 174 200 232 53 58 97 108 97 113 0
10 -28 9 -34 -1z"/>
<path d="M5530 3533 c0 -5 18 -27 41 -48 49 -47 187 -206 283 -325 91 -112
103 -124 82 -83 -19 38 -21 70 -4 75 8 3 -15 40 -58 94 -39 49 -98 125 -131
169 -64 84 -61 83 -200 123 -7 2 -13 0 -13 -5z"/>
<path d="M3204 3378 c-48 -61 -175 -215 -281 -342 -211 -252 -239 -295 -228
-354 l8 -37 8 38 c16 69 46 111 201 277 167 180 244 271 362 428 l77 102 -30
0 c-26 0 -41 -14 -117 -112z"/>
<path d="M5777 3413 c105 -142 226 -286 377 -448 167 -180 173 -188 197 -258
l17 -50 7 32 c11 51 -22 102 -211 327 -97 115 -223 269 -281 342 -92 116 -108
132 -134 132 l-29 0 57 -77z"/>
<path d="M4762 3447 c-7 -8 -19 -34 -27 -58 -20 -55 -75 -272 -75 -294 0 -27
90 -113 144 -139 86 -40 106 -41 49 -2 -73 50 -130 133 -147 213 -12 53 10 45
37 -15 47 -100 137 -186 217 -206 18 -5 15 -1 -11 13 -48 26 -105 87 -129 136
-23 48 -50 149 -50 185 1 22 3 21 22 -15 25 -49 51 -79 102 -116 61 -45 85
-38 33 10 -58 54 -106 137 -128 222 -22 83 -22 84 -37 66z"/>
<path d="M5913 3368 c46 -54 48 -55 144 -77 62 -14 122 -21 163 -19 l65 3 -56
38 c-43 28 -66 37 -100 37 -63 0 -170 25 -220 50 l-42 22 46 -54z"/>
<path d="M3115 3383 c-41 -18 -86 -27 -143 -31 -75 -4 -90 -9 -138 -41 -49
-32 -52 -36 -33 -43 25 -10 160 6 239 27 42 11 66 26 104 65 57 56 55 58 -29
23z"/>
<path d="M6080 3170 c0 -14 68 -70 104 -85 58 -25 143 -36 215 -28 l63 6 -38
19 c-21 10 -47 27 -58 38 -17 15 -36 19 -97 19 -49 0 -97 7 -133 19 -31 10
-56 16 -56 12z"/>
<path d="M2900 3149 c-36 -10 -91 -18 -122 -17 -39 1 -63 -3 -75 -14 -10 -9
-36 -25 -58 -36 l-40 -20 49 -7 c59 -9 146 -1 207 20 45 16 119 69 119 86 0
11 2 11 -80 -12z"/>
<path d="M4845 3111 c23 -45 93 -109 152 -138 98 -48 215 -29 288 47 l28 30
-39 -21 c-51 -27 -126 -21 -186 15 -28 16 -52 23 -66 20 -37 -10 -88 5 -142
42 l-51 35 16 -30z"/>
<path d="M4173 3104 c-42 -33 -111 -56 -144 -49 -19 4 -44 -2 -80 -21 -63 -32
-129 -35 -179 -9 l-35 18 25 -28 c14 -15 48 -38 75 -51 88 -42 181 -28 275 41
44 32 108 110 99 120 -3 2 -19 -7 -36 -21z"/>
<path d="M2970 2987 c-191 -201 -230 -255 -230 -319 0 -19 7 -44 16 -56 l16
-23 23 48 c24 53 68 110 169 224 84 94 173 260 139 259 -5 -1 -64 -60 -133
-133z"/>
<path d="M5950 3111 c0 -37 88 -177 169 -271 106 -121 150 -184 158 -223 5
-23 8 -25 20 -15 46 38 35 106 -31 195 -53 71 -284 317 -303 321 -7 2 -13 -1
-13 -7z"/>
<path d="M4629 3028 c-7 -12 -7 -24 -1 -31 5 -7 12 -32 15 -57 3 -25 12 -83
21 -129 59 -320 33 -639 -70 -848 -53 -106 -58 -108 -93 -32 -41 92 -60 162
-92 344 -19 107 -27 137 -23 90 13 -174 64 -386 120 -497 16 -32 24 -65 24
-100 l1 -53 29 35 c34 40 110 191 135 268 9 28 18 52 21 52 2 0 13 -19 25 -42
40 -78 102 -162 177 -240 87 -90 120 -106 41 -20 -76 83 -135 165 -170 239
-34 72 -33 100 2 31 56 -111 177 -245 281 -312 59 -37 163 -77 200 -75 14 0 4
6 -23 13 -137 38 -303 179 -387 327 -59 105 -112 257 -112 321 l0 51 78 -74
c128 -123 252 -196 400 -234 73 -20 242 -20 302 -1 l45 14 -65 -5 c-138 -11
-320 35 -453 113 -89 52 -217 169 -271 247 -34 49 -37 60 -46 165 -6 62 -17
161 -25 219 -8 59 -15 108 -15 110 0 2 32 -19 71 -46 140 -98 293 -123 405
-66 62 32 108 86 120 140 6 27 3 26 -23 -15 -62 -95 -123 -125 -240 -118 -105
7 -220 66 -321 164 -66 64 -74 69 -83 52z"/>
<path d="M4343 2976 c-113 -113 -269 -184 -378 -173 -87 9 -146 47 -194 127
-15 25 -21 30 -21 16 0 -32 47 -101 87 -128 61 -40 107 -51 194 -46 68 4 91
11 165 47 127 63 255 190 216 215 -4 2 -35 -24 -69 -58z"/>
<path d="M3695 2977 c-12 -45 0 -122 27 -174 48 -94 153 -131 276 -98 l67 19
-87 12 c-158 23 -222 78 -263 224 -12 44 -13 44 -20 17z"/>
<path d="M5330 2960 c-19 -68 -44 -113 -88 -152 -47 -42 -89 -58 -186 -67 -70
-7 -71 -8 -41 -21 17 -8 66 -14 115 -14 80 -1 88 1 132 31 70 49 113 161 90
238 l-9 30 -13 -45z"/>
<path d="M6277 2925 l47 -55 100 0 c56 0 118 3 139 6 l37 7 -63 22 c-35 12
-98 25 -141 28 -43 4 -98 16 -122 26 l-44 20 47 -54z"/>
<path d="M2765 2949 c-27 -10 -75 -18 -105 -19 -60 0 -199 -43 -180 -55 7 -4
65 -8 131 -9 l119 -1 52 53 c57 57 57 58 -17 31z"/>
<path d="M4600 2866 c-6 -17 -10 -170 -9 -409 0 -342 2 -378 15 -343 49 135
62 393 30 636 -10 74 -20 137 -22 139 -2 2 -8 -8 -14 -23z"/>
<path d="M7350 2881 c-92 -28 -125 -69 -117 -142 12 -100 85 -171 176 -171 52
0 101 25 121 63 10 18 8 17 -25 -2 -78 -47 -192 11 -211 106 -8 44 29 93 96
127 55 28 55 28 20 27 -19 0 -46 -4 -60 -8z"/>
<path d="M1681 2853 c72 -37 98 -82 81 -142 -25 -83 -133 -126 -207 -82 -33
19 -35 19 -25 2 28 -54 105 -82 170 -62 91 27 163 165 123 234 -25 41 -95 77
-151 77 l-46 0 55 -27z"/>
<path d="M4473 2810 c3 -30 15 -192 27 -360 12 -168 25 -314 29 -325 4 -10 11
76 14 193 5 173 4 224 -8 270 -9 31 -20 100 -25 152 -7 64 -16 100 -26 110
-15 14 -16 10 -11 -40z"/>
<path d="M4414 2795 c-17 -78 -7 -253 24 -415 19 -94 31 -139 31 -115 1 44
-37 544 -43 560 -2 6 -7 -8 -12 -30z"/>
<path d="M4771 2753 c149 -266 358 -439 541 -451 40 -2 92 1 115 7 82 22 142
101 143 187 0 44 -33 152 -52 169 -8 7 -9 5 -5 -6 40 -115 -8 -214 -115 -239
-141 -34 -324 64 -431 233 -31 48 -46 61 -94 82 -31 14 -72 37 -89 50 -18 14
-36 25 -39 25 -4 0 8 -26 26 -57z"/>
<path d="M4250 2770 c-25 -17 -64 -37 -88 -46 -34 -14 -51 -30 -88 -85 -93
-141 -218 -221 -356 -227 -66 -4 -83 -1 -117 19 -67 37 -95 116 -71 198 14 50
6 49 -19 -1 -103 -213 44 -384 279 -324 137 35 278 142 392 297 51 70 121 189
115 195 -2 2 -23 -10 -47 -26z"/>
<path d="M4317 2720 c-113 -207 -303 -391 -470 -455 -54 -21 -58 -24 -30 -25
52 0 196 53 276 103 41 26 105 75 143 110 l68 64 26 134 c15 74 27 135 26 136
-1 1 -18 -29 -39 -67z"/>
<path d="M6506 2740 c50 -29 116 -72 145 -96 43 -35 62 -44 92 -44 21 0 54 -7
75 -16 20 -9 48 -20 62 -25 l25 -9 -23 17 c-12 9 -56 44 -98 78 -101 84 -173
121 -254 129 -36 4 -76 10 -90 12 -14 3 16 -18 66 -46z"/>
<path d="M1886 2768 c-2 -7 -9 -31 -14 -53 -5 -22 -13 -48 -17 -57 -7 -17 -5
-17 31 -2 l39 16 -34 -36 c-19 -20 -32 -38 -29 -41 3 -3 43 -16 90 -30 79 -23
89 -24 132 -11 25 8 92 47 148 87 l102 74 -59 7 c-33 4 -107 18 -165 32 -114
28 -218 34 -224 14z"/>
<path d="M2516 2769 c-70 -10 -144 -50 -240 -128 -39 -31 -81 -64 -95 -73 -38
-26 -12 -22 53 8 38 17 68 24 89 21 26 -3 40 3 79 37 26 23 89 65 140 94 100
56 98 59 -26 41z"/>
<path d="M6935 2754 c-55 -14 -124 -28 -153 -32 l-52 -7 94 -67 c100 -71 153
-98 194 -98 37 0 182 42 182 52 0 5 -13 23 -30 39 -30 31 -27 32 26 12 6 -2 4
21 -5 62 l-16 65 -70 -1 c-39 0 -114 -11 -170 -25z"/>
<path d="M6426 2723 c-3 -3 -6 -15 -6 -25 0 -30 -37 -93 -71 -122 -18 -16 -28
-31 -23 -36 5 -4 56 -29 114 -55 110 -48 130 -64 130 -102 0 -57 76 -154 204
-260 44 -37 47 -42 36 -63 -18 -33 -16 -110 3 -147 45 -85 197 -108 281 -42
38 30 26 34 -19 7 -48 -28 -118 -29 -163 -3 -58 34 -77 115 -48 198 13 34 12
41 -10 85 -13 26 -61 93 -107 148 -95 112 -133 169 -143 211 -13 58 -158 226
-178 206z"/>
<path d="M2574 2678 c-58 -60 -114 -138 -114 -157 0 -28 -56 -113 -145 -220
-113 -136 -132 -172 -116 -229 18 -69 14 -135 -11 -167 -46 -59 -127 -70 -204
-29 -42 23 -47 23 -31 6 30 -33 81 -52 136 -52 65 0 109 18 143 58 35 41 42
82 28 143 l-12 50 104 98 c105 100 130 138 143 212 5 36 8 38 123 89 64 29
119 54 121 56 2 2 -15 24 -38 49 -25 27 -46 62 -53 90 -7 25 -17 45 -23 45 -6
0 -29 -19 -51 -42z"/>
<path d="M5590 2715 c0 -2 22 -25 50 -51 89 -83 150 -209 150 -307 0 -59 -22
-135 -54 -185 -36 -58 -18 -53 28 8 54 70 76 136 76 223 0 92 -23 157 -78 218
-49 55 -172 122 -172 94z"/>
<path d="M3385 2686 c-130 -60 -204 -210 -175 -352 14 -68 29 -101 77 -166 40
-56 64 -65 28 -12 -36 53 -50 109 -50 199 1 107 36 184 130 284 37 39 61 71
54 71 -8 0 -37 -11 -64 -24z"/>
<path d="M5564 2653 c52 -79 69 -172 46 -254 -16 -56 -82 -124 -157 -161 -55
-27 -79 -33 -156 -36 -98 -5 -179 9 -242 41 l-40 20 19 -22 c27 -30 211 -118
274 -130 189 -38 351 19 412 145 19 38 22 57 18 117 -3 45 -13 90 -27 118 -25
53 -121 173 -151 189 -20 10 -19 8 4 -27z"/>
<path d="M3447 2637 c-190 -189 -190 -409 -1 -506 98 -51 255 -49 386 4 65 26
202 104 196 111 -2 2 -33 -9 -68 -23 -57 -24 -79 -27 -175 -27 -90 0 -120 4
-166 22 -63 25 -128 77 -159 127 -47 77 -41 195 16 293 14 23 22 42 19 42 -3
0 -25 -19 -48 -43z"/>
<path d="M4764 2650 c3 -19 8 -63 12 -98 7 -63 7 -64 76 -125 124 -112 247
-171 377 -182 31 -2 47 -2 36 1 -11 2 -40 10 -65 16 -147 36 -305 171 -393
334 -39 71 -47 82 -43 54z"/>
<path d="M6570 2655 c49 -66 161 -187 211 -231 78 -67 185 -119 305 -149 86
-21 99 -22 118 -10 11 8 39 15 63 15 l42 0 -25 25 c-23 23 -34 26 -122 29 -68
2 -116 10 -161 26 -76 27 -207 113 -311 205 -41 36 -88 76 -105 88 -27 19 -29
19 -15 2z"/>
<path d="M2385 2574 c-212 -183 -337 -244 -497 -244 -73 0 -83 -2 -104 -25
l-23 -25 37 0 c21 0 48 -7 60 -16 20 -13 31 -14 75 -4 178 40 282 95 397 210
93 92 177 190 163 190 -4 0 -53 -39 -108 -86z"/>
<path d="M7655 2585 c-23 -23 -60 -50 -83 -60 l-41 -19 28 -17 c50 -30 73 -69
69 -115 -2 -26 1 -40 7 -36 75 42 110 102 102 173 -3 26 -14 63 -24 82 l-18
35 -40 -43z"/>
<path d="M1347 2584 c-28 -57 -32 -115 -12 -155 22 -44 44 -68 75 -84 25 -13
26 -13 22 21 -5 43 36 111 73 120 34 9 31 18 -11 33 -20 7 -57 33 -81 57 -24
24 -45 44 -46 44 -2 0 -11 -16 -20 -36z"/>
<path d="M2236 2539 c-34 -14 -68 -19 -110 -17 -157 6 -342 -75 -321 -141 6
-18 14 -21 72 -21 133 0 287 64 433 180 l25 20 -25 -1 c-14 0 -47 -9 -74 -20z"/>
<path d="M6740 2556 c0 -11 130 -96 197 -130 85 -42 175 -66 255 -66 54 0 58
2 64 27 6 21 2 31 -22 50 -72 59 -205 98 -301 87 -35 -4 -62 -1 -101 15 -49
19 -92 27 -92 17z"/>
<path d="M6188 2534 c58 -21 101 -66 108 -114 6 -39 7 -39 63 -47 31 -4 81 -7
111 -6 30 1 60 -3 67 -8 9 -8 10 -4 3 22 -5 17 -11 33 -12 34 -15 13 -313 124
-343 128 l-40 6 43 -15z"/>
<path d="M2830 2531 c-73 -23 -287 -115 -297 -129 -7 -9 -13 -25 -13 -36 0
-12 4 -16 8 -11 4 6 41 10 82 10 109 0 150 10 150 39 0 37 41 89 90 114 43 21
32 29 -20 13z"/>
<path d="M2905 2503 c-44 -12 -105 -75 -105 -107 0 -3 20 -3 45 1 95 13 140
-57 101 -152 -17 -39 -13 -41 44 -25 64 18 127 65 140 104 32 97 -111 211
-225 179z"/>
<path d="M6035 2496 c-43 -19 -93 -72 -103 -109 -21 -75 46 -142 172 -171 25
-6 28 -5 21 11 -25 64 -27 76 -16 114 15 50 40 63 108 56 52 -5 53 -5 42 16
-17 33 -51 67 -81 83 -34 17 -103 17 -143 0z"/>
<path d="M2361 2448 c-42 -46 -88 -80 -216 -158 -32 -19 -68 -51 -81 -70 -29
-42 -32 -80 -6 -80 9 0 34 -3 55 -6 30 -6 37 -4 37 10 0 36 45 101 140 201 89
93 128 143 118 149 -2 1 -23 -20 -47 -46z"/>
<path d="M6650 2493 c0 -6 46 -59 102 -119 111 -120 158 -185 158 -222 0 -22
3 -24 31 -18 17 3 42 6 55 6 20 0 24 5 24 30 0 43 -54 98 -152 155 -46 26
-113 77 -150 113 -38 36 -68 61 -68 55z"/>
<path d="M4267 2425 c-42 -66 -160 -181 -239 -232 -140 -91 -247 -124 -428
-132 l-125 -6 75 -14 c234 -43 480 51 688 262 63 63 63 64 60 115 l-3 52 -28
-45z"/>
<path d="M1635 2416 c-77 -33 -135 -113 -135 -183 0 -64 7 -68 119 -68 l100 0
-36 -18 c-32 -17 -115 -25 -151 -16 -8 2 -19 -4 -25 -13 -10 -14 -7 -22 11
-40 20 -20 33 -23 105 -23 45 0 99 6 121 14 52 18 113 75 122 113 9 45 -13 58
-100 58 -62 0 -110 11 -96 23 3 2 20 14 38 26 35 25 62 68 62 101 0 37 -76 52
-135 26z"/>
<path d="M7305 2414 c-25 -25 -11 -63 40 -110 25 -22 45 -43 45 -47 0 -4 -32
-7 -70 -7 -92 0 -135 -20 -125 -58 15 -64 63 -102 165 -128 104 -26 205 -1
198 49 -3 20 -8 22 -65 19 -45 -3 -73 1 -107 17 -56 24 -60 33 -9 19 47 -13
146 -6 167 11 11 9 16 30 16 61 0 95 -98 190 -196 190 -26 0 -49 -6 -59 -16z"/>
<path d="M4300 2294 c0 -33 -43 -160 -81 -241 -95 -199 -249 -343 -424 -395
l-60 -18 50 6 c155 18 359 184 467 379 32 57 37 41 8 -22 -26 -58 -72 -125
-139 -203 -88 -102 -91 -111 -12 -35 87 84 133 144 191 248 l43 79 -12 68 c-6
38 -11 85 -11 104 0 19 -4 38 -10 41 -5 3 -10 -1 -10 -11z"/>
<path d="M4174 2186 c-45 -34 -89 -73 -98 -88 -28 -46 -138 -152 -206 -198
-74 -50 -206 -100 -266 -100 -113 0 -192 55 -251 175 l-34 70 5 -67 c13 -164
139 -285 310 -296 235 -15 467 176 597 490 16 39 28 72 27 73 -2 1 -40 -26
-84 -59z"/>
<path d="M4790 2248 c0 -17 65 -157 99 -215 115 -195 270 -316 436 -342 207
-32 395 108 395 294 l0 60 -23 -56 c-50 -121 -130 -179 -246 -179 -132 1 -280
78 -410 215 -39 41 -71 79 -71 84 0 8 -39 40 -161 130 -11 7 -19 11 -19 9z"/>
<path d="M2795 2081 c-22 -43 -85 -83 -134 -84 -49 -2 -48 -15 2 -40 84 -42
227 -40 288 4 53 37 76 109 42 128 -10 5 -55 12 -100 16 l-81 7 -17 -31z"/>
<path d="M6093 2098 c-34 -7 -43 -14 -43 -30 0 -36 31 -87 69 -110 31 -20 49
-23 136 -23 85 0 106 3 143 23 52 28 54 42 3 42 -45 0 -97 32 -126 77 -19 31
-23 32 -80 32 -33 -1 -79 -5 -102 -11z"/>
<path d="M6968 2102 c-42 -3 -47 -6 -57 -34 -32 -91 4 -168 78 -168 l36 0 -35
18 c-42 21 -62 57 -55 97 7 39 19 45 96 45 83 0 125 -25 152 -90 l18 -45 -4
53 c-7 97 -77 136 -229 124z"/>
<path d="M1934 2080 c-50 -25 -77 -71 -72 -120 4 -37 4 -37 30 32 19 50 110
79 197 62 25 -5 32 -12 37 -41 9 -45 -9 -82 -46 -96 -40 -15 -38 -31 2 -23 41
8 66 31 76 70 11 42 -2 107 -24 123 -29 21 -151 17 -200 -7z"/>
<path d="M1740 2029 c-28 -11 -143 -14 -183 -4 -20 5 -27 3 -27 -8 0 -22 81
-128 122 -159 41 -31 157 -92 164 -86 2 3 -4 20 -13 39 -13 23 -18 59 -19 114
-1 129 1 122 -44 104z"/>
<path d="M7278 1943 c-2 -64 -9 -109 -20 -130 -14 -28 -14 -33 -2 -33 22 0
104 44 151 82 45 35 123 132 123 152 0 8 -28 12 -92 11 -51 0 -107 4 -124 8
l-32 8 -4 -98z"/>
<path d="M4311 1963 c-130 -249 -432 -472 -645 -473 -51 -1 -51 -1 -23 -16 52
-28 33 -37 -75 -32 -100 4 -102 4 -58 -10 73 -23 215 -27 287 -9 171 44 308
150 513 395 l78 93 -16 59 c-9 33 -19 60 -22 60 -3 0 -20 -30 -39 -67z"/>
<path d="M4710 1965 c-30 -77 -28 -85 56 -186 177 -213 300 -308 459 -354 71
-21 220 -16 303 10 30 9 52 18 50 19 -1 2 -39 -1 -83 -5 -82 -8 -115 -5 -115
12 0 5 10 13 22 18 16 6 4 9 -48 14 -242 23 -507 222 -614 460 l-19 41 -11
-29z"/>
<path d="M5767 1940 c-19 -158 -156 -283 -358 -326 -83 -18 -188 -13 -246 11
-62 26 -20 -11 51 -44 212 -101 475 -22 558 166 22 51 28 176 11 222 -9 22
-11 18 -16 -29z"/>
<path d="M3264 1955 c-17 -56 -9 -166 16 -223 29 -68 111 -143 188 -173 47
-19 76 -23 167 -23 120 0 190 19 250 68 l30 25 -49 -15 c-64 -18 -186 -18
-260 1 -183 48 -304 164 -325 313 -7 54 -8 55 -17 27z"/>
<path d="M5838 1832 c-12 -159 -97 -262 -272 -329 l-61 -23 55 6 c112 13 218
70 264 141 37 59 49 108 44 185 -7 96 -24 107 -30 20z"/>
<path d="M3187 1870 c-4 -14 -7 -57 -7 -96 0 -59 5 -81 28 -125 47 -89 140
-147 270 -168 62 -10 60 1 -4 19 -25 7 -72 30 -103 50 -94 61 -142 139 -164
267 -10 60 -15 72 -20 53z"/>
<path d="M4688 1672 c4 -124 1 -177 -13 -243 -21 -107 -64 -217 -116 -299
l-41 -64 -20 24 c-43 53 -102 197 -124 300 -4 19 -13 85 -20 145 l-13 110 5
-105 c9 -176 50 -321 129 -449 25 -40 37 -74 42 -121 l9 -65 47 86 c139 253
193 477 167 695 -9 80 -16 104 -34 122 l-23 23 5 -159z"/>
<path d="M4390 1730 c-6 -189 6 -289 51 -432 23 -71 41 -91 33 -35 -2 17 -11
121 -19 229 -13 167 -19 206 -39 250 l-24 53 -2 -65z"/>
<path d="M4643 1750 c-13 -27 -77 -472 -71 -491 7 -22 56 105 73 186 20 100
18 347 -2 305z"/>
<path d="M6857 1738 c-24 -42 -97 -72 -153 -63 -24 3 -44 4 -44 1 0 -3 18 -15
40 -26 85 -43 253 -42 334 3 59 32 59 53 -1 61 -26 4 -73 17 -104 29 l-56 23
-16 -28z"/>
<path d="M2105 1734 c-38 -12 -82 -25 -97 -29 -16 -3 -28 -9 -28 -15 0 -18 59
-50 121 -66 93 -24 228 -7 279 34 20 17 19 17 -44 17 -70 0 -111 20 -131 63
-11 26 -10 26 -100 -4z"/>
<path d="M4566 1677 l-29 -41 -35 39 c-19 22 -33 33 -30 24 3 -8 14 -108 24
-222 10 -114 20 -207 23 -207 7 0 85 440 79 445 -1 1 -16 -16 -32 -38z"/>
</g>
</svg>
